<?xml version="1.0" encoding="utf-8" standalone="no"?>
<!DOCTYPE svg PUBLIC "-//W3C//DTD SVG 1.1//EN"
  "http://www.w3.org/Graphics/SVG/1.1/DTD/svg11.dtd">
<svg xmlns:xlink="http://www.w3.org/1999/xlink" width="397.6075pt" height="297.190125pt" viewBox="0 0 397.6075 297.190125" xmlns="http://www.w3.org/2000/svg" version="1.1">
 <metadata>
  <rdf:RDF xmlns:dc="http://purl.org/dc/elements/1.1/" xmlns:cc="http://creativecommons.org/ns#" xmlns:rdf="http://www.w3.org/1999/02/22-rdf-syntax-ns#">
   <cc:Work>
    <dc:type rdf:resource="http://purl.org/dc/dcmitype/StillImage"/>
    <dc:date>2025-04-19T20:25:17.084112</dc:date>
    <dc:format>image/svg+xml</dc:format>
    <dc:creator>
     <cc:Agent>
      <dc:title>Matplotlib v3.8.4, https://matplotlib.org/</dc:title>
     </cc:Agent>
    </dc:creator>
   </cc:Work>
  </rdf:RDF>
 </metadata>
 <defs>
  <style type="text/css">*{stroke-linejoin: round; stroke-linecap: butt}</style>
 </defs>
 <g id="figure_1">
  <g id="patch_1">
   <path d="M 0 297.190125 
L 397.6075 297.190125 
L 397.6075 0 
L 0 0 
z
" style="fill: #ffffff"/>
  </g>
  <g id="axes_1">
   <g id="patch_2">
    <path d="M 33.2875 273.312 
L 390.4075 273.312 
L 390.4075 7.2 
L 33.2875 7.2 
z
" style="fill: #e8e8e8"/>
   </g>
   <g id="matplotlib.axis_1">
    <g id="xtick_1">
     <g id="line2d_1">
      <path d="M 33.2875 273.312 
L 33.2875 7.2 
" clip-path="url(#pb15f62042e)" style="fill: none; stroke: #ffffff; stroke-linecap: square"/>
     </g>
     <g id="line2d_2">
      <defs>
       <path id="ma727f2cccf" d="M 0 0 
L 0 3.5 
" style="stroke: #000000; stroke-width: 0.8"/>
      </defs>
      <g>
       <use xlink:href="#ma727f2cccf" x="33.2875" y="273.312" style="stroke: #000000; stroke-width: 0.8"/>
      </g>
     </g>
     <g id="text_1">
      <!-- −15 -->
      <g transform="translate(22.735156 287.910437) scale(0.1 -0.1)">
       <defs>
        <path id="DejaVuSans-2212" d="M 678 2272 
L 4684 2272 
L 4684 1741 
L 678 1741 
L 678 2272 
z
" transform="scale(0.015625)"/>
        <path id="DejaVuSans-31" d="M 794 531 
L 1825 531 
L 1825 4091 
L 703 3866 
L 703 4441 
L 1819 4666 
L 2450 4666 
L 2450 531 
L 3481 531 
L 3481 0 
L 794 0 
L 794 531 
z
" transform="scale(0.015625)"/>
        <path id="DejaVuSans-35" d="M 691 4666 
L 3169 4666 
L 3169 4134 
L 1269 4134 
L 1269 2991 
Q 1406 3038 1543 3061 
Q 1681 3084 1819 3084 
Q 2600 3084 3056 2656 
Q 3513 2228 3513 1497 
Q 3513 744 3044 326 
Q 2575 -91 1722 -91 
Q 1428 -91 1123 -41 
Q 819 9 494 109 
L 494 744 
Q 775 591 1075 516 
Q 1375 441 1709 441 
Q 2250 441 2565 725 
Q 2881 1009 2881 1497 
Q 2881 1984 2565 2268 
Q 2250 2553 1709 2553 
Q 1456 2553 1204 2497 
Q 953 2441 691 2322 
L 691 4666 
z
" transform="scale(0.015625)"/>
       </defs>
       <use xlink:href="#DejaVuSans-2212"/>
       <use xlink:href="#DejaVuSans-31" x="83.789062"/>
       <use xlink:href="#DejaVuSans-35" x="147.412109"/>
      </g>
     </g>
    </g>
    <g id="xtick_2">
     <g id="line2d_3">
      <path d="M 109.813214 273.312 
L 109.813214 7.2 
" clip-path="url(#pb15f62042e)" style="fill: none; stroke: #ffffff; stroke-linecap: square"/>
     </g>
     <g id="line2d_4">
      <g>
       <use xlink:href="#ma727f2cccf" x="109.813214" y="273.312" style="stroke: #000000; stroke-width: 0.8"/>
      </g>
     </g>
     <g id="text_2">
      <!-- −10 -->
      <g transform="translate(99.260871 287.910437) scale(0.1 -0.1)">
       <defs>
        <path id="DejaVuSans-30" d="M 2034 4250 
Q 1547 4250 1301 3770 
Q 1056 3291 1056 2328 
Q 1056 1369 1301 889 
Q 1547 409 2034 409 
Q 2525 409 2770 889 
Q 3016 1369 3016 2328 
Q 3016 3291 2770 3770 
Q 2525 4250 2034 4250 
z
M 2034 4750 
Q 2819 4750 3233 4129 
Q 3647 3509 3647 2328 
Q 3647 1150 3233 529 
Q 2819 -91 2034 -91 
Q 1250 -91 836 529 
Q 422 1150 422 2328 
Q 422 3509 836 4129 
Q 1250 4750 2034 4750 
z
" transform="scale(0.015625)"/>
       </defs>
       <use xlink:href="#DejaVuSans-2212"/>
       <use xlink:href="#DejaVuSans-31" x="83.789062"/>
       <use xlink:href="#DejaVuSans-30" x="147.412109"/>
      </g>
     </g>
    </g>
    <g id="xtick_3">
     <g id="line2d_5">
      <path d="M 186.338929 273.312 
L 186.338929 7.2 
" clip-path="url(#pb15f62042e)" style="fill: none; stroke: #ffffff; stroke-linecap: square"/>
     </g>
     <g id="line2d_6">
      <g>
       <use xlink:href="#ma727f2cccf" x="186.338929" y="273.312" style="stroke: #000000; stroke-width: 0.8"/>
      </g>
     </g>
     <g id="text_3">
      <!-- −5 -->
      <g transform="translate(178.967835 287.910437) scale(0.1 -0.1)">
       <use xlink:href="#DejaVuSans-2212"/>
       <use xlink:href="#DejaVuSans-35" x="83.789062"/>
      </g>
     </g>
    </g>
    <g id="xtick_4">
     <g id="line2d_7">
      <path d="M 262.864643 273.312 
L 262.864643 7.2 
" clip-path="url(#pb15f62042e)" style="fill: none; stroke: #ffffff; stroke-linecap: square"/>
     </g>
     <g id="line2d_8">
      <g>
       <use xlink:href="#ma727f2cccf" x="262.864643" y="273.312" style="stroke: #000000; stroke-width: 0.8"/>
      </g>
     </g>
     <g id="text_4">
      <!-- 0 -->
      <g transform="translate(259.683393 287.910437) scale(0.1 -0.1)">
       <use xlink:href="#DejaVuSans-30"/>
      </g>
     </g>
    </g>
    <g id="xtick_5">
     <g id="line2d_9">
      <path d="M 339.390357 273.312 
L 339.390357 7.2 
" clip-path="url(#pb15f62042e)" style="fill: none; stroke: #ffffff; stroke-linecap: square"/>
     </g>
     <g id="line2d_10">
      <g>
       <use xlink:href="#ma727f2cccf" x="339.390357" y="273.312" style="stroke: #000000; stroke-width: 0.8"/>
      </g>
     </g>
     <g id="text_5">
      <!-- 5 -->
      <g transform="translate(336.209107 287.910437) scale(0.1 -0.1)">
       <use xlink:href="#DejaVuSans-35"/>
      </g>
     </g>
    </g>
   </g>
   <g id="matplotlib.axis_2">
    <g id="ytick_1">
     <g id="line2d_11">
      <path d="M 33.2875 272.351307 
L 390.4075 272.351307 
" clip-path="url(#pb15f62042e)" style="fill: none; stroke: #ffffff; stroke-linecap: square"/>
     </g>
     <g id="line2d_12">
      <defs>
       <path id="mfd7bbe179e" d="M 0 0 
L -3.5 0 
" style="stroke: #000000; stroke-width: 0.8"/>
      </defs>
      <g>
       <use xlink:href="#mfd7bbe179e" x="33.2875" y="272.351307" style="stroke: #000000; stroke-width: 0.8"/>
      </g>
     </g>
     <g id="text_6">
      <!-- 0 -->
      <g transform="translate(19.925 276.150526) scale(0.1 -0.1)">
       <use xlink:href="#DejaVuSans-30"/>
      </g>
     </g>
    </g>
    <g id="ytick_2">
     <g id="line2d_13">
      <path d="M 33.2875 233.923581 
L 390.4075 233.923581 
" clip-path="url(#pb15f62042e)" style="fill: none; stroke: #ffffff; stroke-linecap: square"/>
     </g>
     <g id="line2d_14">
      <g>
       <use xlink:href="#mfd7bbe179e" x="33.2875" y="233.923581" style="stroke: #000000; stroke-width: 0.8"/>
      </g>
     </g>
     <g id="text_7">
      <!-- 20 -->
      <g transform="translate(13.5625 237.7228) scale(0.1 -0.1)">
       <defs>
        <path id="DejaVuSans-32" d="M 1228 531 
L 3431 531 
L 3431 0 
L 469 0 
L 469 531 
Q 828 903 1448 1529 
Q 2069 2156 2228 2338 
Q 2531 2678 2651 2914 
Q 2772 3150 2772 3378 
Q 2772 3750 2511 3984 
Q 2250 4219 1831 4219 
Q 1534 4219 1204 4116 
Q 875 4013 500 3803 
L 500 4441 
Q 881 4594 1212 4672 
Q 1544 4750 1819 4750 
Q 2544 4750 2975 4387 
Q 3406 4025 3406 3419 
Q 3406 3131 3298 2873 
Q 3191 2616 2906 2266 
Q 2828 2175 2409 1742 
Q 1991 1309 1228 531 
z
" transform="scale(0.015625)"/>
       </defs>
       <use xlink:href="#DejaVuSans-32"/>
       <use xlink:href="#DejaVuSans-30" x="63.623047"/>
      </g>
     </g>
    </g>
    <g id="ytick_3">
     <g id="line2d_15">
      <path d="M 33.2875 195.495856 
L 390.4075 195.495856 
" clip-path="url(#pb15f62042e)" style="fill: none; stroke: #ffffff; stroke-linecap: square"/>
     </g>
     <g id="line2d_16">
      <g>
       <use xlink:href="#mfd7bbe179e" x="33.2875" y="195.495856" style="stroke: #000000; stroke-width: 0.8"/>
      </g>
     </g>
     <g id="text_8">
      <!-- 40 -->
      <g transform="translate(13.5625 199.295074) scale(0.1 -0.1)">
       <defs>
        <path id="DejaVuSans-34" d="M 2419 4116 
L 825 1625 
L 2419 1625 
L 2419 4116 
z
M 2253 4666 
L 3047 4666 
L 3047 1625 
L 3713 1625 
L 3713 1100 
L 3047 1100 
L 3047 0 
L 2419 0 
L 2419 1100 
L 313 1100 
L 313 1709 
L 2253 4666 
z
" transform="scale(0.015625)"/>
       </defs>
       <use xlink:href="#DejaVuSans-34"/>
       <use xlink:href="#DejaVuSans-30" x="63.623047"/>
      </g>
     </g>
    </g>
    <g id="ytick_4">
     <g id="line2d_17">
      <path d="M 33.2875 157.06813 
L 390.4075 157.06813 
" clip-path="url(#pb15f62042e)" style="fill: none; stroke: #ffffff; stroke-linecap: square"/>
     </g>
     <g id="line2d_18">
      <g>
       <use xlink:href="#mfd7bbe179e" x="33.2875" y="157.06813" style="stroke: #000000; stroke-width: 0.8"/>
      </g>
     </g>
     <g id="text_9">
      <!-- 60 -->
      <g transform="translate(13.5625 160.867349) scale(0.1 -0.1)">
       <defs>
        <path id="DejaVuSans-36" d="M 2113 2584 
Q 1688 2584 1439 2293 
Q 1191 2003 1191 1497 
Q 1191 994 1439 701 
Q 1688 409 2113 409 
Q 2538 409 2786 701 
Q 3034 994 3034 1497 
Q 3034 2003 2786 2293 
Q 2538 2584 2113 2584 
z
M 3366 4563 
L 3366 3988 
Q 3128 4100 2886 4159 
Q 2644 4219 2406 4219 
Q 1781 4219 1451 3797 
Q 1122 3375 1075 2522 
Q 1259 2794 1537 2939 
Q 1816 3084 2150 3084 
Q 2853 3084 3261 2657 
Q 3669 2231 3669 1497 
Q 3669 778 3244 343 
Q 2819 -91 2113 -91 
Q 1303 -91 875 529 
Q 447 1150 447 2328 
Q 447 3434 972 4092 
Q 1497 4750 2381 4750 
Q 2619 4750 2861 4703 
Q 3103 4656 3366 4563 
z
" transform="scale(0.015625)"/>
       </defs>
       <use xlink:href="#DejaVuSans-36"/>
       <use xlink:href="#DejaVuSans-30" x="63.623047"/>
      </g>
     </g>
    </g>
    <g id="ytick_5">
     <g id="line2d_19">
      <path d="M 33.2875 118.640404 
L 390.4075 118.640404 
" clip-path="url(#pb15f62042e)" style="fill: none; stroke: #ffffff; stroke-linecap: square"/>
     </g>
     <g id="line2d_20">
      <g>
       <use xlink:href="#mfd7bbe179e" x="33.2875" y="118.640404" style="stroke: #000000; stroke-width: 0.8"/>
      </g>
     </g>
     <g id="text_10">
      <!-- 80 -->
      <g transform="translate(13.5625 122.439623) scale(0.1 -0.1)">
       <defs>
        <path id="DejaVuSans-38" d="M 2034 2216 
Q 1584 2216 1326 1975 
Q 1069 1734 1069 1313 
Q 1069 891 1326 650 
Q 1584 409 2034 409 
Q 2484 409 2743 651 
Q 3003 894 3003 1313 
Q 3003 1734 2745 1975 
Q 2488 2216 2034 2216 
z
M 1403 2484 
Q 997 2584 770 2862 
Q 544 3141 544 3541 
Q 544 4100 942 4425 
Q 1341 4750 2034 4750 
Q 2731 4750 3128 4425 
Q 3525 4100 3525 3541 
Q 3525 3141 3298 2862 
Q 3072 2584 2669 2484 
Q 3125 2378 3379 2068 
Q 3634 1759 3634 1313 
Q 3634 634 3220 271 
Q 2806 -91 2034 -91 
Q 1263 -91 848 271 
Q 434 634 434 1313 
Q 434 1759 690 2068 
Q 947 2378 1403 2484 
z
M 1172 3481 
Q 1172 3119 1398 2916 
Q 1625 2713 2034 2713 
Q 2441 2713 2670 2916 
Q 2900 3119 2900 3481 
Q 2900 3844 2670 4047 
Q 2441 4250 2034 4250 
Q 1625 4250 1398 4047 
Q 1172 3844 1172 3481 
z
" transform="scale(0.015625)"/>
       </defs>
       <use xlink:href="#DejaVuSans-38"/>
       <use xlink:href="#DejaVuSans-30" x="63.623047"/>
      </g>
     </g>
    </g>
    <g id="ytick_6">
     <g id="line2d_21">
      <path d="M 33.2875 80.212679 
L 390.4075 80.212679 
" clip-path="url(#pb15f62042e)" style="fill: none; stroke: #ffffff; stroke-linecap: square"/>
     </g>
     <g id="line2d_22">
      <g>
       <use xlink:href="#mfd7bbe179e" x="33.2875" y="80.212679" style="stroke: #000000; stroke-width: 0.8"/>
      </g>
     </g>
     <g id="text_11">
      <!-- 100 -->
      <g transform="translate(7.2 84.011897) scale(0.1 -0.1)">
       <use xlink:href="#DejaVuSans-31"/>
       <use xlink:href="#DejaVuSans-30" x="63.623047"/>
       <use xlink:href="#DejaVuSans-30" x="127.246094"/>
      </g>
     </g>
    </g>
    <g id="ytick_7">
     <g id="line2d_23">
      <path d="M 33.2875 41.784953 
L 390.4075 41.784953 
" clip-path="url(#pb15f62042e)" style="fill: none; stroke: #ffffff; stroke-linecap: square"/>
     </g>
     <g id="line2d_24">
      <g>
       <use xlink:href="#mfd7bbe179e" x="33.2875" y="41.784953" style="stroke: #000000; stroke-width: 0.8"/>
      </g>
     </g>
     <g id="text_12">
      <!-- 120 -->
      <g transform="translate(7.2 45.584172) scale(0.1 -0.1)">
       <use xlink:href="#DejaVuSans-31"/>
       <use xlink:href="#DejaVuSans-32" x="63.623047"/>
       <use xlink:href="#DejaVuSans-30" x="127.246094"/>
      </g>
     </g>
    </g>
   </g>
   <g id="line2d_25">
    <path d="M -1 271.750194 
L 22.564725 271.320118 
L 43.219819 270.723022 
L 60.39762 269.985401 
L 74.10913 269.164876 
L 84.553871 268.346128 
L 95.311037 267.263632 
L 104.812986 266.039235 
L 111.597714 264.975676 
L 118.36383 263.70459 
L 125.10815 262.171869 
L 131.82685 260.307857 
L 135.555923 259.091676 
L 139.328236 257.703404 
L 143.129267 256.117642 
L 146.961522 254.296947 
L 150.82739 252.195831 
L 154.729121 249.75888 
L 155.064991 249.53307 
L 158.654577 246.942797 
L 162.597053 243.691389 
L 166.576541 239.883495 
L 168.066888 238.303268 
L 171.275821 234.585707 
L 174.640973 230.170627 
L 178.718777 224.014359 
L 180.788321 220.528387 
L 183.919368 214.744926 
L 187.030461 208.362973 
L 190.999885 199.304617 
L 195.064989 188.897326 
L 196.251736 185.665361 
L 199.292295 176.907194 
L 203.114882 165.102603 
L 208.340221 147.969848 
L 222.217216 101.109289 
L 226.33139 88.419184 
L 229.414608 79.527913 
L 232.922814 70.395552 
L 236.384227 62.348949 
L 239.800412 55.414491 
L 243.171052 49.611794 
L 244.615694 47.446031 
L 246.504349 44.841747 
L 247.718581 43.358529 
L 249.802268 41.061434 
L 250.840096 40.09004 
L 253.981337 37.65285 
L 257.142972 36.007426 
L 259.492411 35.296455 
L 260.325174 35.16531 
L 262.661025 35.055372 
L 263.528821 35.138889 
L 265.799225 35.603197 
L 266.754504 35.932722 
L 268.907745 36.908099 
L 270.003302 37.561312 
L 271.985837 38.953959 
L 273.275843 40.05065 
L 275.032406 41.73141 
L 278.045623 45.239885 
L 281.023762 49.475139 
L 283.965405 54.42426 
L 286.630643 59.597062 
L 293.078053 98.94444 
L 297.513684 124.59311 
L 301.611634 147.049503 
L 305.351304 166.395505 
L 308.706157 182.701615 
L 312.148462 198.318885 
L 315.551988 212.589118 
L 318.404327 223.576642 
L 321.075203 233.019687 
L 323.743833 241.636571 
L 326.206348 248.84251 
L 328.463811 254.746051 
L 330.311523 259.006128 
L 332.158761 262.726804 
L 333.906487 265.747674 
L 335.430097 267.992561 
L 336.039687 268.941311 
L 337.075763 270.521103 
L 338.173801 271.759417 
L 338.892572 272.351307 
L 338.892572 272.351307 
L 398.6075 272.351307 
L 398.6075 272.351307 
" clip-path="url(#pb15f62042e)" style="fill: none; stroke: #dd513a; stroke-width: 3; stroke-linecap: square"/>
   </g>
   <g id="line2d_26">
    <path d="M -1 271.756086 
L 21.464677 271.353132 
L 42.219748 270.766033 
L 59.515641 270.035953 
L 73.352355 269.218241 
L 83.729891 268.412025 
L 94.107426 267.379427 
L 101.025784 266.526289 
L 107.944141 265.502126 
L 114.862498 264.261064 
L 121.780855 262.742277 
L 128.699212 260.861255 
L 132.158391 259.74987 
L 135.617569 258.500573 
L 139.076748 257.091826 
L 142.535926 255.498406 
L 145.995105 253.690552 
L 149.454283 251.63377 
L 152.913462 249.288394 
L 156.372641 246.609453 
L 159.831819 243.54705 
L 163.290998 240.047511 
L 166.750176 236.054819 
L 170.209355 231.512956 
L 173.668533 226.370264 
L 177.127712 220.584455 
L 180.58689 214.129008 
L 184.046069 206.999117 
L 187.505248 199.219122 
L 190.964426 190.848518 
L 194.423605 181.974939 
L 201.341962 163.19557 
L 211.719498 134.665792 
L 215.178676 125.651526 
L 218.637855 117.0962 
L 222.097033 109.087419 
L 225.556212 101.687928 
L 229.01539 94.944817 
L 232.474569 88.888845 
L 235.933747 83.537267 
L 239.392926 78.897353 
L 242.852105 74.970128 
L 246.311283 71.753351 
L 249.770462 69.240357 
L 253.22964 67.42424 
L 256.688819 66.300585 
L 260.147997 65.867567 
L 263.607176 66.126381 
L 267.066355 67.081951 
L 270.525533 68.744044 
L 273.984712 71.128205 
L 277.44389 74.255819 
L 280.903069 78.15576 
L 284.362247 82.867254 
L 287.821426 88.442565 
L 291.280604 94.951992 
L 294.739783 102.492483 
L 298.198962 111.204037 
L 301.65814 121.304823 
L 305.117319 133.174742 
L 308.825793 149.036049 
L 312.814507 175.303385 
L 316.304631 196.899635 
L 319.545461 215.546613 
L 322.287701 230.081247 
L 324.780647 242.145954 
L 327.024298 251.926298 
L 329.018655 259.628994 
L 330.763717 265.492271 
L 332.259485 269.717033 
L 333.256663 272.351307 
L 333.256663 272.351307 
L 398.6075 272.351307 
L 398.6075 272.351307 
" clip-path="url(#pb15f62042e)" style="fill: none; stroke: #8c564b; stroke-width: 3; stroke-linecap: square"/>
   </g>
   <g id="line2d_27">
    <path d="M -1 271.756439 
L 23.352411 271.309374 
L 42.77129 270.746802 
L 59.12403 270.05561 
L 72.410631 269.281686 
L 83.65314 268.418354 
L 93.873603 267.405076 
L 102.049973 266.385469 
L 109.204297 265.292221 
L 115.336575 264.165187 
L 121.468852 262.815978 
L 126.579084 261.480318 
L 131.689315 259.90511 
L 135.7775 258.435619 
L 139.865685 256.741334 
L 143.95387 254.780262 
L 147.020009 253.103104 
L 150.086148 251.221432 
L 153.152287 249.106753 
L 156.218425 246.727334 
L 159.284564 244.048375 
L 162.350703 241.032492 
L 165.416842 237.640597 
L 168.482981 233.83328 
L 171.549119 229.572775 
L 174.615258 224.825529 
L 177.681397 219.56531 
L 180.747536 213.776671 
L 183.813675 207.458427 
L 186.879813 200.626715 
L 189.945952 193.317085 
L 194.034137 182.92018 
L 198.122322 171.973709 
L 214.475063 127.292459 
L 218.563248 117.081892 
L 222.651433 107.644666 
L 225.717572 101.120479 
L 228.78371 95.114114 
L 231.849849 89.646564 
L 234.915988 84.730333 
L 237.982127 80.371418 
L 240.026219 77.771292 
L 242.070312 75.427975 
L 244.114404 73.327636 
L 246.158497 71.469529 
L 248.202589 69.862641 
L 250.246682 68.495929 
L 252.290774 67.36862 
L 254.334867 66.487259 
L 256.37896 65.843642 
L 258.423052 65.43761 
L 260.467145 65.274837 
L 262.511237 65.349766 
L 264.55533 65.663305 
L 266.599422 66.22145 
L 268.643515 67.02106 
L 270.687607 68.064502 
L 272.7317 69.35913 
L 274.775792 70.90408 
L 276.819885 72.703713 
L 278.863977 74.767651 
L 280.90807 77.097578 
L 282.952162 79.700582 
L 284.996255 82.589918 
L 287.040348 85.770487 
L 289.08444 89.253531 
L 291.128533 93.058222 
L 293.172625 97.194479 
L 295.216718 101.680824 
L 297.26081 106.546873 
L 299.304903 111.812601 
L 301.348995 117.511657 
L 303.393088 123.69543 
L 305.43718 130.409553 
L 307.481273 137.727233 
L 309.525365 145.759582 
L 311.569458 154.640051 
L 313.613551 164.590612 
L 315.657643 175.98732 
L 317.701736 189.483847 
L 318.723782 197.392686 
L 319.745828 206.344903 
L 320.767874 216.310913 
L 321.789921 272.351307 
L 398.6075 272.351307 
L 398.6075 272.351307 
" clip-path="url(#pb15f62042e)" style="fill: none; stroke-dasharray: 11.1,4.8; stroke-dashoffset: 0; stroke: #000000; stroke-width: 3"/>
   </g>
   <g id="legend_1">
    <g id="patch_3">
     <path d="M 42.0731 59.254687 
L 111.9731 59.254687 
Q 113.9731 59.254687 113.9731 57.254687 
L 113.9731 14.2 
Q 113.9731 12.2 111.9731 12.2 
L 42.0731 12.2 
Q 40.0731 12.2 40.0731 14.2 
L 40.0731 57.254687 
Q 40.0731 59.254687 42.0731 59.254687 
z
" style="fill: #e8e8e8; opacity: 0.8; stroke: #cccccc; stroke-linejoin: miter"/>
    </g>
    <g id="line2d_28">
     <path d="M 44.0731 20.298437 
L 54.0731 20.298437 
L 64.0731 20.298437 
" style="fill: none; stroke: #dd513a; stroke-width: 3; stroke-linecap: square"/>
    </g>
    <g id="text_13">
     <!-- $GHD*\tau$ -->
     <g transform="translate(72.0731 23.798437) scale(0.1 -0.1)">
      <defs>
       <path id="DejaVuSans-Oblique-47" d="M 3494 697 
L 3738 1919 
L 2700 1919 
L 2797 2438 
L 4453 2438 
L 4050 384 
Q 3634 156 3143 32 
Q 2653 -91 2156 -91 
Q 1278 -91 783 396 
Q 288 884 288 1753 
Q 288 2475 589 3126 
Q 891 3778 1422 4213 
Q 1756 4484 2153 4617 
Q 2550 4750 3034 4750 
Q 3472 4750 3873 4639 
Q 4275 4528 4641 4306 
L 4513 3634 
Q 4231 3928 3853 4083 
Q 3475 4238 3047 4238 
Q 2550 4238 2172 4048 
Q 1794 3859 1497 3463 
Q 1244 3125 1098 2667 
Q 953 2209 953 1734 
Q 953 1081 1287 751 
Q 1622 422 2284 422 
Q 2616 422 2925 492 
Q 3234 563 3494 697 
z
" transform="scale(0.015625)"/>
       <path id="DejaVuSans-Oblique-48" d="M 1081 4666 
L 1716 4666 
L 1344 2753 
L 3634 2753 
L 4006 4666 
L 4641 4666 
L 3731 0 
L 3097 0 
L 3531 2222 
L 1241 2222 
L 806 0 
L 172 0 
L 1081 4666 
z
" transform="scale(0.015625)"/>
       <path id="DejaVuSans-Oblique-44" d="M 1081 4666 
L 2438 4666 
Q 3519 4666 4070 4208 
Q 4622 3750 4622 2847 
Q 4622 2250 4412 1698 
Q 4203 1147 3834 769 
Q 3463 381 2891 190 
Q 2319 0 1538 0 
L 172 0 
L 1081 4666 
z
M 1613 4147 
L 909 519 
L 1734 519 
Q 2794 519 3375 1128 
Q 3956 1738 3956 2847 
Q 3956 3519 3581 3833 
Q 3206 4147 2406 4147 
L 1613 4147 
z
" transform="scale(0.015625)"/>
       <path id="DejaVuSans-2a" d="M 3009 3897 
L 1888 3291 
L 3009 2681 
L 2828 2375 
L 1778 3009 
L 1778 1831 
L 1422 1831 
L 1422 3009 
L 372 2375 
L 191 2681 
L 1313 3291 
L 191 3897 
L 372 4206 
L 1422 3572 
L 1422 4750 
L 1778 4750 
L 1778 3572 
L 2828 4206 
L 3009 3897 
z
" transform="scale(0.015625)"/>
       <path id="DejaVuSans-Oblique-3c4" d="M 2103 638 
Q 2188 488 2525 488 
L 2800 488 
L 2706 0 
L 2363 0 
Q 1800 0 1600 300 
Q 1403 606 1534 1269 
L 1856 2925 
L 541 2925 
L 653 3500 
L 3881 3500 
L 3769 2925 
L 2444 2925 
L 2113 1234 
Q 2025 781 2103 638 
z
" transform="scale(0.015625)"/>
      </defs>
      <use xlink:href="#DejaVuSans-Oblique-47" transform="translate(0 0.78125)"/>
      <use xlink:href="#DejaVuSans-Oblique-48" transform="translate(77.490234 0.78125)"/>
      <use xlink:href="#DejaVuSans-Oblique-44" transform="translate(152.685547 0.78125)"/>
      <use xlink:href="#DejaVuSans-2a" transform="translate(249.169922 0.78125)"/>
      <use xlink:href="#DejaVuSans-Oblique-3c4" transform="translate(318.652344 0.78125)"/>
     </g>
    </g>
    <g id="line2d_29">
     <path d="M 44.0731 34.976562 
L 54.0731 34.976562 
L 64.0731 34.976562 
" style="fill: none; stroke: #8c564b; stroke-width: 3; stroke-linecap: square"/>
    </g>
    <g id="text_14">
     <!-- $\Pi$ -->
     <g transform="translate(72.0731 38.476562) scale(0.1 -0.1)">
      <defs>
       <path id="DejaVuSans-3a0" d="M 4184 4666 
L 4184 0 
L 3553 0 
L 3553 4134 
L 1259 4134 
L 1259 0 
L 628 0 
L 628 4666 
L 4184 4666 
z
" transform="scale(0.015625)"/>
      </defs>
      <use xlink:href="#DejaVuSans-3a0" transform="translate(0 0.09375)"/>
     </g>
    </g>
    <g id="line2d_30">
     <path d="M 44.0731 49.654687 
L 54.0731 49.654687 
L 64.0731 49.654687 
" style="fill: none; stroke-dasharray: 11.1,4.8; stroke-dashoffset: 0; stroke: #000000; stroke-width: 3"/>
    </g>
    <g id="text_15">
     <!-- $\ell\rho$ -->
     <g transform="translate(72.0731 53.154687) scale(0.1 -0.1)">
      <defs>
       <path id="DejaVuSans-Oblique-2113" d="M 950 838 
Q 1078 213 1350 213 
Q 1531 213 1766 572 
L 2181 572 
Q 1994 253 1775 88 
Q 1538 -91 1319 -91 
Q 831 -91 634 344 
L 400 0 
L -88 0 
Q 250 459 500 888 
Q 469 1131 469 1397 
Q 469 1872 566 2347 
Q 931 4131 1256 4497 
Q 1481 4750 1866 4750 
Q 2256 4750 2256 4209 
Q 2253 3966 2197 3675 
Q 1972 2484 950 838 
z
M 947 1656 
Q 1531 2744 1709 3613 
Q 1803 4072 1803 4191 
Q 1803 4406 1725 4406 
Q 1384 4134 1081 2516 
Q 997 2063 947 1656 
z
" transform="scale(0.015625)"/>
       <path id="DejaVuSans-Oblique-3c1" d="M 1203 2875 
Q 1453 3194 1981 3475 
Q 2188 3584 2756 3584 
Q 3394 3584 3694 3078 
Q 3994 2572 3834 1747 
Q 3672 922 3175 415 
Q 2678 -91 2041 -91 
Q 1656 -91 1409 63 
Q 1163 213 1044 525 
L 681 -1331 
L 103 -1331 
L 697 1716 
Q 838 2438 1203 2875 
z
M 3238 1747 
Q 3359 2381 3169 2744 
Q 2978 3103 2522 3103 
Q 2066 3103 1734 2744 
Q 1403 2381 1281 1747 
Q 1156 1113 1347 750 
Q 1538 391 1994 391 
Q 2450 391 2781 750 
Q 3113 1113 3238 1747 
z
" transform="scale(0.015625)"/>
      </defs>
      <use xlink:href="#DejaVuSans-Oblique-2113" transform="translate(0 0.78125)"/>
      <use xlink:href="#DejaVuSans-Oblique-3c1" transform="translate(41.308594 0.78125)"/>
     </g>
    </g>
   </g>
  </g>
 </g>
 <defs>
  <clipPath id="pb15f62042e">
   <rect x="33.2875" y="7.2" width="357.12" height="266.112"/>
  </clipPath>
 </defs>
</svg>
