<?xml version="1.0" encoding="utf-8" standalone="no"?>
<!DOCTYPE svg PUBLIC "-//W3C//DTD SVG 1.1//EN"
  "http://www.w3.org/Graphics/SVG/1.1/DTD/svg11.dtd">
<svg xmlns:xlink="http://www.w3.org/1999/xlink" width="324.0825pt" height="213.038125pt" viewBox="0 0 324.0825 213.038125" xmlns="http://www.w3.org/2000/svg" version="1.1">
 <metadata>
  <rdf:RDF xmlns:dc="http://purl.org/dc/elements/1.1/" xmlns:cc="http://creativecommons.org/ns#" xmlns:rdf="http://www.w3.org/1999/02/22-rdf-syntax-ns#">
   <cc:Work>
    <dc:type rdf:resource="http://purl.org/dc/dcmitype/StillImage"/>
    <dc:date>2025-04-22T14:50:29.303790</dc:date>
    <dc:format>image/svg+xml</dc:format>
    <dc:creator>
     <cc:Agent>
      <dc:title>Matplotlib v3.8.4, https://matplotlib.org/</dc:title>
     </cc:Agent>
    </dc:creator>
   </cc:Work>
  </rdf:RDF>
 </metadata>
 <defs>
  <style type="text/css">*{stroke-linejoin: round; stroke-linecap: butt}</style>
 </defs>
 <g id="figure_1">
  <g id="patch_1">
   <path d="M 0 213.038125 
L 324.0825 213.038125 
L 324.0825 0 
L 0 0 
z
" style="fill: #ffffff"/>
  </g>
  <g id="axes_1">
   <g id="patch_2">
    <path d="M 37.8825 173.52 
L 316.8825 173.52 
L 316.8825 7.2 
L 37.8825 7.2 
z
" style="fill: #e8e8e8"/>
   </g>
   <g id="matplotlib.axis_1">
    <g id="xtick_1">
     <g id="line2d_1">
      <path d="M 66.594783 173.52 
L 66.594783 7.2 
" clip-path="url(#pf64a93a8ff)" style="fill: none; stroke: #ffffff; stroke-linecap: square"/>
     </g>
     <g id="line2d_2">
      <defs>
       <path id="m676ebd1dce" d="M 0 0 
L 0 3.5 
" style="stroke: #000000; stroke-width: 0.8"/>
      </defs>
      <g>
       <use xlink:href="#m676ebd1dce" x="66.594783" y="173.52" style="stroke: #000000; stroke-width: 0.8"/>
      </g>
     </g>
     <g id="text_1">
      <!-- −400 -->
      <g transform="translate(52.861189 188.118438) scale(0.1 -0.1)">
       <defs>
        <path id="DejaVuSans-2212" d="M 678 2272 
L 4684 2272 
L 4684 1741 
L 678 1741 
L 678 2272 
z
" transform="scale(0.015625)"/>
        <path id="DejaVuSans-34" d="M 2419 4116 
L 825 1625 
L 2419 1625 
L 2419 4116 
z
M 2253 4666 
L 3047 4666 
L 3047 1625 
L 3713 1625 
L 3713 1100 
L 3047 1100 
L 3047 0 
L 2419 0 
L 2419 1100 
L 313 1100 
L 313 1709 
L 2253 4666 
z
" transform="scale(0.015625)"/>
        <path id="DejaVuSans-30" d="M 2034 4250 
Q 1547 4250 1301 3770 
Q 1056 3291 1056 2328 
Q 1056 1369 1301 889 
Q 1547 409 2034 409 
Q 2525 409 2770 889 
Q 3016 1369 3016 2328 
Q 3016 3291 2770 3770 
Q 2525 4250 2034 4250 
z
M 2034 4750 
Q 2819 4750 3233 4129 
Q 3647 3509 3647 2328 
Q 3647 1150 3233 529 
Q 2819 -91 2034 -91 
Q 1250 -91 836 529 
Q 422 1150 422 2328 
Q 422 3509 836 4129 
Q 1250 4750 2034 4750 
z
" transform="scale(0.015625)"/>
       </defs>
       <use xlink:href="#DejaVuSans-2212"/>
       <use xlink:href="#DejaVuSans-34" x="83.789062"/>
       <use xlink:href="#DejaVuSans-30" x="147.412109"/>
       <use xlink:href="#DejaVuSans-30" x="211.035156"/>
      </g>
     </g>
    </g>
    <g id="xtick_2">
     <g id="line2d_3">
      <path d="M 121.988641 173.52 
L 121.988641 7.2 
" clip-path="url(#pf64a93a8ff)" style="fill: none; stroke: #ffffff; stroke-linecap: square"/>
     </g>
     <g id="line2d_4">
      <g>
       <use xlink:href="#m676ebd1dce" x="121.988641" y="173.52" style="stroke: #000000; stroke-width: 0.8"/>
      </g>
     </g>
     <g id="text_2">
      <!-- −200 -->
      <g transform="translate(108.255048 188.118438) scale(0.1 -0.1)">
       <defs>
        <path id="DejaVuSans-32" d="M 1228 531 
L 3431 531 
L 3431 0 
L 469 0 
L 469 531 
Q 828 903 1448 1529 
Q 2069 2156 2228 2338 
Q 2531 2678 2651 2914 
Q 2772 3150 2772 3378 
Q 2772 3750 2511 3984 
Q 2250 4219 1831 4219 
Q 1534 4219 1204 4116 
Q 875 4013 500 3803 
L 500 4441 
Q 881 4594 1212 4672 
Q 1544 4750 1819 4750 
Q 2544 4750 2975 4387 
Q 3406 4025 3406 3419 
Q 3406 3131 3298 2873 
Q 3191 2616 2906 2266 
Q 2828 2175 2409 1742 
Q 1991 1309 1228 531 
z
" transform="scale(0.015625)"/>
       </defs>
       <use xlink:href="#DejaVuSans-2212"/>
       <use xlink:href="#DejaVuSans-32" x="83.789062"/>
       <use xlink:href="#DejaVuSans-30" x="147.412109"/>
       <use xlink:href="#DejaVuSans-30" x="211.035156"/>
      </g>
     </g>
    </g>
    <g id="xtick_3">
     <g id="line2d_5">
      <path d="M 177.3825 173.52 
L 177.3825 7.2 
" clip-path="url(#pf64a93a8ff)" style="fill: none; stroke: #ffffff; stroke-linecap: square"/>
     </g>
     <g id="line2d_6">
      <g>
       <use xlink:href="#m676ebd1dce" x="177.3825" y="173.52" style="stroke: #000000; stroke-width: 0.8"/>
      </g>
     </g>
     <g id="text_3">
      <!-- 0 -->
      <g transform="translate(174.20125 188.118438) scale(0.1 -0.1)">
       <use xlink:href="#DejaVuSans-30"/>
      </g>
     </g>
    </g>
    <g id="xtick_4">
     <g id="line2d_7">
      <path d="M 232.776359 173.52 
L 232.776359 7.2 
" clip-path="url(#pf64a93a8ff)" style="fill: none; stroke: #ffffff; stroke-linecap: square"/>
     </g>
     <g id="line2d_8">
      <g>
       <use xlink:href="#m676ebd1dce" x="232.776359" y="173.52" style="stroke: #000000; stroke-width: 0.8"/>
      </g>
     </g>
     <g id="text_4">
      <!-- 200 -->
      <g transform="translate(223.232609 188.118438) scale(0.1 -0.1)">
       <use xlink:href="#DejaVuSans-32"/>
       <use xlink:href="#DejaVuSans-30" x="63.623047"/>
       <use xlink:href="#DejaVuSans-30" x="127.246094"/>
      </g>
     </g>
    </g>
    <g id="xtick_5">
     <g id="line2d_9">
      <path d="M 288.170217 173.52 
L 288.170217 7.2 
" clip-path="url(#pf64a93a8ff)" style="fill: none; stroke: #ffffff; stroke-linecap: square"/>
     </g>
     <g id="line2d_10">
      <g>
       <use xlink:href="#m676ebd1dce" x="288.170217" y="173.52" style="stroke: #000000; stroke-width: 0.8"/>
      </g>
     </g>
     <g id="text_5">
      <!-- 400 -->
      <g transform="translate(278.626467 188.118438) scale(0.1 -0.1)">
       <use xlink:href="#DejaVuSans-34"/>
       <use xlink:href="#DejaVuSans-30" x="63.623047"/>
       <use xlink:href="#DejaVuSans-30" x="127.246094"/>
      </g>
     </g>
    </g>
    <g id="text_6">
     <!-- $x\quad (\mu m)$ -->
     <g transform="translate(153.6225 203.318125) scale(0.12 -0.12)">
      <defs>
       <path id="DejaVuSans-Oblique-78" d="M 3841 3500 
L 2234 1784 
L 3219 0 
L 2559 0 
L 1819 1388 
L 531 0 
L -166 0 
L 1556 1844 
L 641 3500 
L 1300 3500 
L 1972 2234 
L 3144 3500 
L 3841 3500 
z
" transform="scale(0.015625)"/>
       <path id="DejaVuSans-28" d="M 1984 4856 
Q 1566 4138 1362 3434 
Q 1159 2731 1159 2009 
Q 1159 1288 1364 580 
Q 1569 -128 1984 -844 
L 1484 -844 
Q 1016 -109 783 600 
Q 550 1309 550 2009 
Q 550 2706 781 3412 
Q 1013 4119 1484 4856 
L 1984 4856 
z
" transform="scale(0.015625)"/>
       <path id="DejaVuSans-Oblique-3bc" d="M -84 -1331 
L 856 3500 
L 1434 3500 
L 1009 1322 
Q 997 1256 987 1175 
Q 978 1094 978 1013 
Q 978 722 1161 565 
Q 1344 409 1684 409 
Q 2147 409 2431 671 
Q 2716 934 2816 1459 
L 3213 3500 
L 3788 3500 
L 3266 809 
Q 3253 750 3248 706 
Q 3244 663 3244 628 
Q 3244 531 3283 486 
Q 3322 441 3406 441 
Q 3438 441 3492 456 
Q 3547 472 3647 513 
L 3559 50 
Q 3422 -19 3297 -55 
Q 3172 -91 3053 -91 
Q 2847 -91 2730 40 
Q 2613 172 2613 403 
Q 2438 153 2195 31 
Q 1953 -91 1625 -91 
Q 1334 -91 1117 43 
Q 900 178 831 397 
L 494 -1331 
L -84 -1331 
z
" transform="scale(0.015625)"/>
       <path id="DejaVuSans-Oblique-6d" d="M 5747 2113 
L 5338 0 
L 4763 0 
L 5166 2094 
Q 5191 2228 5203 2325 
Q 5216 2422 5216 2491 
Q 5216 2772 5059 2928 
Q 4903 3084 4622 3084 
Q 4203 3084 3875 2770 
Q 3547 2456 3450 1953 
L 3066 0 
L 2491 0 
L 2900 2094 
Q 2925 2209 2937 2307 
Q 2950 2406 2950 2484 
Q 2950 2769 2794 2926 
Q 2638 3084 2363 3084 
Q 1938 3084 1609 2770 
Q 1281 2456 1184 1953 
L 800 0 
L 225 0 
L 909 3500 
L 1484 3500 
L 1375 2956 
Q 1609 3263 1923 3423 
Q 2238 3584 2597 3584 
Q 2978 3584 3223 3384 
Q 3469 3184 3519 2828 
Q 3781 3197 4126 3390 
Q 4472 3584 4856 3584 
Q 5306 3584 5551 3325 
Q 5797 3066 5797 2591 
Q 5797 2488 5784 2364 
Q 5772 2241 5747 2113 
z
" transform="scale(0.015625)"/>
       <path id="DejaVuSans-29" d="M 513 4856 
L 1013 4856 
Q 1481 4119 1714 3412 
Q 1947 2706 1947 2009 
Q 1947 1309 1714 600 
Q 1481 -109 1013 -844 
L 513 -844 
Q 928 -128 1133 580 
Q 1338 1288 1338 2009 
Q 1338 2731 1133 3434 
Q 928 4138 513 4856 
z
" transform="scale(0.015625)"/>
      </defs>
      <use xlink:href="#DejaVuSans-Oblique-78" transform="translate(0 0.125)"/>
      <use xlink:href="#DejaVuSans-28" transform="translate(156.591797 0.125)"/>
      <use xlink:href="#DejaVuSans-Oblique-3bc" transform="translate(195.605469 0.125)"/>
      <use xlink:href="#DejaVuSans-Oblique-6d" transform="translate(259.228516 0.125)"/>
      <use xlink:href="#DejaVuSans-29" transform="translate(356.640625 0.125)"/>
     </g>
    </g>
   </g>
   <g id="matplotlib.axis_2">
    <g id="ytick_1">
     <g id="line2d_11">
      <path d="M 37.8825 153.72 
L 316.8825 153.72 
" clip-path="url(#pf64a93a8ff)" style="fill: none; stroke: #ffffff; stroke-linecap: square"/>
     </g>
     <g id="line2d_12">
      <defs>
       <path id="m22088549f7" d="M 0 0 
L -3.5 0 
" style="stroke: #000000; stroke-width: 0.8"/>
      </defs>
      <g>
       <use xlink:href="#m22088549f7" x="37.8825" y="153.72" style="stroke: #000000; stroke-width: 0.8"/>
      </g>
     </g>
     <g id="text_7">
      <!-- 0 -->
      <g transform="translate(24.52 157.519219) scale(0.1 -0.1)">
       <use xlink:href="#DejaVuSans-30"/>
      </g>
     </g>
    </g>
    <g id="ytick_2">
     <g id="line2d_13">
      <path d="M 37.8825 114.12 
L 316.8825 114.12 
" clip-path="url(#pf64a93a8ff)" style="fill: none; stroke: #ffffff; stroke-linecap: square"/>
     </g>
     <g id="line2d_14">
      <g>
       <use xlink:href="#m22088549f7" x="37.8825" y="114.12" style="stroke: #000000; stroke-width: 0.8"/>
      </g>
     </g>
     <g id="text_8">
      <!-- 1 -->
      <g transform="translate(24.52 117.919219) scale(0.1 -0.1)">
       <defs>
        <path id="DejaVuSans-31" d="M 794 531 
L 1825 531 
L 1825 4091 
L 703 3866 
L 703 4441 
L 1819 4666 
L 2450 4666 
L 2450 531 
L 3481 531 
L 3481 0 
L 794 0 
L 794 531 
z
" transform="scale(0.015625)"/>
       </defs>
       <use xlink:href="#DejaVuSans-31"/>
      </g>
     </g>
    </g>
    <g id="ytick_3">
     <g id="line2d_15">
      <path d="M 37.8825 74.52 
L 316.8825 74.52 
" clip-path="url(#pf64a93a8ff)" style="fill: none; stroke: #ffffff; stroke-linecap: square"/>
     </g>
     <g id="line2d_16">
      <g>
       <use xlink:href="#m22088549f7" x="37.8825" y="74.52" style="stroke: #000000; stroke-width: 0.8"/>
      </g>
     </g>
     <g id="text_9">
      <!-- 2 -->
      <g transform="translate(24.52 78.319219) scale(0.1 -0.1)">
       <use xlink:href="#DejaVuSans-32"/>
      </g>
     </g>
    </g>
    <g id="ytick_4">
     <g id="line2d_17">
      <path d="M 37.8825 34.92 
L 316.8825 34.92 
" clip-path="url(#pf64a93a8ff)" style="fill: none; stroke: #ffffff; stroke-linecap: square"/>
     </g>
     <g id="line2d_18">
      <g>
       <use xlink:href="#m22088549f7" x="37.8825" y="34.92" style="stroke: #000000; stroke-width: 0.8"/>
      </g>
     </g>
     <g id="text_10">
      <!-- 3 -->
      <g transform="translate(24.52 38.719219) scale(0.1 -0.1)">
       <defs>
        <path id="DejaVuSans-33" d="M 2597 2516 
Q 3050 2419 3304 2112 
Q 3559 1806 3559 1356 
Q 3559 666 3084 287 
Q 2609 -91 1734 -91 
Q 1441 -91 1130 -33 
Q 819 25 488 141 
L 488 750 
Q 750 597 1062 519 
Q 1375 441 1716 441 
Q 2309 441 2620 675 
Q 2931 909 2931 1356 
Q 2931 1769 2642 2001 
Q 2353 2234 1838 2234 
L 1294 2234 
L 1294 2753 
L 1863 2753 
Q 2328 2753 2575 2939 
Q 2822 3125 2822 3475 
Q 2822 3834 2567 4026 
Q 2313 4219 1838 4219 
Q 1578 4219 1281 4162 
Q 984 4106 628 3988 
L 628 4550 
Q 988 4650 1302 4700 
Q 1616 4750 1894 4750 
Q 2613 4750 3031 4423 
Q 3450 4097 3450 3541 
Q 3450 3153 3228 2886 
Q 3006 2619 2597 2516 
z
" transform="scale(0.015625)"/>
       </defs>
       <use xlink:href="#DejaVuSans-33"/>
      </g>
     </g>
    </g>
    <g id="text_11">
     <!-- $\tilde{n} \quad (\mu m^{-1} $)  -->
     <g transform="translate(18 122.94) rotate(-90) scale(0.12 -0.12)">
      <defs>
       <path id="DejaVuSans-303" d="M -1619 4281 
L -1797 4453 
Q -1866 4516 -1917 4545 
Q -1969 4575 -2009 4575 
Q -2128 4575 -2184 4461 
Q -2241 4347 -2247 4091 
L -2638 4091 
Q -2631 4513 -2472 4742 
Q -2313 4972 -2028 4972 
Q -1909 4972 -1809 4928 
Q -1709 4884 -1594 4781 
L -1416 4609 
Q -1347 4547 -1295 4517 
Q -1244 4488 -1203 4488 
Q -1084 4488 -1028 4602 
Q -972 4716 -966 4972 
L -575 4972 
Q -581 4550 -740 4320 
Q -900 4091 -1184 4091 
Q -1303 4091 -1403 4134 
Q -1503 4178 -1619 4281 
z
" transform="scale(0.015625)"/>
       <path id="DejaVuSans-Oblique-6e" d="M 3566 2113 
L 3156 0 
L 2578 0 
L 2988 2091 
Q 3016 2238 3031 2350 
Q 3047 2463 3047 2528 
Q 3047 2791 2881 2937 
Q 2716 3084 2419 3084 
Q 1956 3084 1622 2776 
Q 1288 2469 1184 1941 
L 800 0 
L 225 0 
L 903 3500 
L 1478 3500 
L 1363 2950 
Q 1603 3253 1940 3418 
Q 2278 3584 2650 3584 
Q 3113 3584 3367 3334 
Q 3622 3084 3622 2631 
Q 3622 2519 3608 2391 
Q 3594 2263 3566 2113 
z
" transform="scale(0.015625)"/>
       <path id="DejaVuSans-20" transform="scale(0.015625)"/>
      </defs>
      <use xlink:href="#DejaVuSans-303" transform="translate(65.063477 5.2625)"/>
      <use xlink:href="#DejaVuSans-Oblique-6e" transform="translate(0 0.684375)"/>
      <use xlink:href="#DejaVuSans-28" transform="translate(160.791016 0.684375)"/>
      <use xlink:href="#DejaVuSans-Oblique-3bc" transform="translate(199.804688 0.684375)"/>
      <use xlink:href="#DejaVuSans-Oblique-6d" transform="translate(263.427734 0.684375)"/>
      <use xlink:href="#DejaVuSans-2212" transform="translate(365.48974 38.965625) scale(0.7)"/>
      <use xlink:href="#DejaVuSans-31" transform="translate(424.142083 38.965625) scale(0.7)"/>
      <use xlink:href="#DejaVuSans-29" transform="translate(471.412591 0.684375)"/>
      <use xlink:href="#DejaVuSans-20" transform="translate(510.426263 0.684375)"/>
     </g>
    </g>
   </g>
   <g id="line2d_19">
    <path d="M 325.0825 158.297111 
L 324.670354 157.508993 
L 324.180118 164.796533 
L 323.199647 157.969359 
L 322.709411 155.287541 
L 322.219176 166.193862 
L 321.72894 155.53587 
L 321.238704 166.225841 
L 320.748469 166.637962 
L 320.258233 168.54809 
L 319.767998 160.214812 
L 319.277762 173.165593 
L 318.787526 173.778439 
L 318.297291 151.367895 
L 317.807055 150.328767 
L 317.316819 147.640472 
L 316.826584 139.184246 
L 316.336348 152.544928 
L 315.846112 162.161793 
L 315.355877 152.98087 
L 314.865641 135.451716 
L 314.375405 155.436555 
L 313.88517 153.597079 
L 313.394934 165.336022 
L 312.904698 161.156806 
L 312.414463 140.801933 
L 311.924227 155.878921 
L 311.433992 141.34918 
L 310.943756 140.905456 
L 310.45352 125.508984 
L 309.963285 137.102937 
L 309.473049 126.675234 
L 308.982813 148.250785 
L 308.492578 150.923362 
L 308.002342 146.141751 
L 307.512106 148.984228 
L 307.021871 139.453261 
L 306.531635 138.921763 
L 306.041399 147.582902 
L 305.551164 154.048561 
L 305.060928 162.390663 
L 304.570692 180.228555 
L 304.080457 162.40908 
L 303.590221 172.258565 
L 303.099986 168.36557 
L 302.60975 176.536345 
L 302.119514 159.593931 
L 301.139043 140.503752 
L 300.648807 157.954394 
L 299.668336 138.621737 
L 299.1781 137.245283 
L 298.687865 151.740279 
L 298.197629 145.914039 
L 297.707393 133.863527 
L 297.217158 148.135594 
L 296.726922 131.20717 
L 296.236686 133.154203 
L 294.76598 151.312721 
L 294.275744 169.591027 
L 293.785508 166.396001 
L 293.295273 150.90788 
L 292.805037 158.014252 
L 292.314801 153.027132 
L 291.824566 164.454605 
L 290.844094 159.755734 
L 290.353859 144.472657 
L 289.863623 163.256459 
L 289.373387 153.155044 
L 288.883152 148.232443 
L 288.392916 155.504426 
L 287.90268 153.522286 
L 287.412445 148.793026 
L 286.922209 146.997749 
L 286.431973 145.734578 
L 285.941738 156.216123 
L 285.451502 159.572 
L 284.961267 167.093832 
L 284.471031 150.590639 
L 283.980795 168.368714 
L 283.49056 155.949462 
L 283.000324 172.328362 
L 282.510088 146.582635 
L 282.019853 147.814502 
L 281.529617 161.756086 
L 281.039381 166.110871 
L 280.05891 148.187135 
L 279.078439 160.261091 
L 278.588203 152.042952 
L 278.097967 157.432918 
L 277.607732 145.486324 
L 277.117496 153.615554 
L 276.627261 147.347187 
L 276.137025 147.691486 
L 275.646789 147.075552 
L 275.156554 141.263872 
L 274.666318 144.361491 
L 274.176082 154.707917 
L 273.685847 152.636854 
L 273.195611 145.1316 
L 272.705375 152.499852 
L 272.21514 152.831217 
L 271.724904 148.891051 
L 271.234668 160.489972 
L 270.744433 158.209878 
L 270.254197 157.37409 
L 269.763961 132.772633 
L 269.273726 147.237276 
L 268.78349 157.097702 
L 268.293255 159.478265 
L 267.803019 158.357099 
L 267.312783 150.269878 
L 266.822548 155.917212 
L 266.332312 157.133734 
L 265.842076 149.553439 
L 265.351841 160.008213 
L 264.861605 153.584609 
L 264.371369 152.150086 
L 263.881134 155.289908 
L 263.390898 137.888896 
L 262.900662 131.591448 
L 262.410427 139.400986 
L 261.920191 151.532488 
L 261.429955 146.442739 
L 260.93972 148.240577 
L 260.449484 148.009143 
L 259.959249 153.34266 
L 259.469013 142.781994 
L 258.978777 144.870892 
L 258.488542 137.51174 
L 257.998306 145.008915 
L 257.50807 149.051998 
L 257.017835 158.09731 
L 256.527599 164.155413 
L 256.037363 166.334398 
L 255.547128 152.200243 
L 255.056892 161.778867 
L 254.566656 152.564827 
L 254.076421 152.637596 
L 253.586185 134.289248 
L 253.095949 124.298777 
L 252.115478 130.367249 
L 251.625242 145.043835 
L 251.135007 133.658805 
L 250.644771 130.271529 
L 250.154536 131.933838 
L 249.6643 141.252182 
L 249.174064 132.45399 
L 248.683829 135.89675 
L 248.193593 133.865995 
L 247.703357 126.160671 
L 247.213122 136.242041 
L 246.722886 135.280017 
L 246.23265 145.128692 
L 245.742415 143.325717 
L 245.252179 135.730536 
L 244.271708 162.87191 
L 243.781472 157.65817 
L 243.291236 137.027067 
L 242.801001 140.534573 
L 242.310765 142.343275 
L 241.82053 130.834046 
L 241.330294 131.426494 
L 240.840058 128.538293 
L 240.349823 137.222553 
L 239.859587 122.177216 
L 239.369351 128.772281 
L 238.879116 131.479139 
L 238.38888 139.236834 
L 237.898644 143.627952 
L 237.408409 130.163856 
L 236.918173 138.718957 
L 236.427937 128.277447 
L 235.937702 140.264313 
L 234.95723 115.046635 
L 234.466995 125.329223 
L 233.976759 118.453042 
L 232.996288 133.93599 
L 232.506052 133.906305 
L 232.015817 142.680466 
L 231.525581 124.895344 
L 230.54511 154.974624 
L 230.054874 147.333132 
L 229.564638 133.299695 
L 229.074403 137.065745 
L 228.584167 139.204417 
L 227.603696 122.171519 
L 227.11346 120.213226 
L 226.623224 125.107206 
L 226.132989 119.404801 
L 225.642753 134.660103 
L 225.152517 143.625427 
L 224.662282 125.659306 
L 224.172046 130.53935 
L 223.681811 133.107965 
L 223.191575 136.685703 
L 222.701339 139.402951 
L 222.211104 138.811693 
L 221.720868 141.738112 
L 221.230632 127.151124 
L 220.740397 129.84954 
L 220.250161 109.932535 
L 219.759925 118.820747 
L 219.26969 120.910791 
L 218.779454 116.387468 
L 218.289218 115.147535 
L 217.798983 122.445764 
L 216.818511 125.683522 
L 216.328276 116.855126 
L 215.83804 100.844673 
L 215.347805 125.554353 
L 214.857569 106.767612 
L 214.367333 105.892738 
L 213.877098 113.084358 
L 213.386862 111.69414 
L 212.896626 110.913526 
L 212.406391 131.518837 
L 211.916155 122.576331 
L 211.425919 129.205179 
L 210.935684 114.650599 
L 210.445448 131.655617 
L 209.955212 115.212864 
L 209.464977 131.167031 
L 208.974741 133.811972 
L 208.484505 120.212639 
L 207.99427 112.461265 
L 207.504034 115.302163 
L 207.013799 106.75991 
L 206.523563 101.362351 
L 206.033327 109.288572 
L 205.543092 102.781071 
L 205.052856 102.129844 
L 204.56262 109.015343 
L 204.072385 100.187918 
L 203.582149 102.01717 
L 203.091913 96.395745 
L 202.601678 95.426576 
L 201.621206 72.471355 
L 201.130971 85.40221 
L 200.640735 91.553604 
L 200.150499 84.479618 
L 199.660264 89.162093 
L 199.170028 98.096905 
L 198.679793 82.082327 
L 198.189557 87.389198 
L 197.699321 84.403665 
L 197.209086 79.468796 
L 196.71885 72.701389 
L 196.228614 75.647684 
L 195.738379 72.128711 
L 195.248143 65.193835 
L 194.267672 43.937515 
L 193.777436 47.196186 
L 193.2872 32.882319 
L 192.796965 32.981544 
L 192.306729 44.592309 
L 191.816493 51.021007 
L 190.836022 28.079556 
L 190.345786 22.784662 
L 189.855551 25.221035 
L 189.365315 22.739953 
L 188.87508 34.081213 
L 188.384844 35.566188 
L 187.894608 24.486566 
L 187.404373 25.070984 
L 186.914137 31.93029 
L 186.423901 33.897121 
L 185.933666 33.228228 
L 185.44343 24.075529 
L 184.953194 25.383104 
L 184.462959 42.591524 
L 183.972723 41.738659 
L 183.482487 36.961049 
L 182.992252 13.446968 
L 182.502016 21.900963 
L 182.01178 20.32916 
L 181.521545 30.848918 
L 180.541074 8.427798 
L 180.050838 15.769597 
L 179.560602 29.788111 
L 179.070367 11.350241 
L 178.580131 11.753062 
L 178.089895 28.277274 
L 177.59966 17.055822 
L 177.109424 29.320822 
L 176.619188 7.374942 
L 176.128953 16.203666 
L 175.638717 41.370051 
L 175.148481 22.441784 
L 174.16801 45.039145 
L 173.677774 30.66906 
L 173.187539 31.294577 
L 172.697303 28.958782 
L 172.207068 23.614618 
L 171.716832 34.214645 
L 171.226596 8.707154 
L 170.736361 13.542601 
L 169.755889 26.367414 
L 169.265654 25.46033 
L 168.775418 25.776374 
L 168.285182 29.110991 
L 167.794947 24.648102 
L 167.304711 39.404143 
L 166.814475 47.200588 
L 166.32424 40.543973 
L 165.834004 52.845019 
L 165.343768 41.924615 
L 164.853533 50.80754 
L 163.873062 39.775706 
L 163.382826 35.435078 
L 162.89259 52.219746 
L 162.402355 51.010613 
L 161.912119 39.822712 
L 161.421883 40.569816 
L 160.931648 42.322325 
L 160.441412 54.673589 
L 159.951176 56.541315 
L 159.460941 59.158126 
L 158.970705 87.446363 
L 158.480469 70.416485 
L 157.990234 80.796696 
L 157.499998 84.293467 
L 157.009762 80.965448 
L 156.519527 65.878624 
L 156.029291 63.015252 
L 155.539055 85.406114 
L 155.04882 77.83704 
L 154.558584 84.491709 
L 154.068349 82.098829 
L 153.578113 67.16041 
L 153.087877 96.191702 
L 152.597642 93.528238 
L 152.107406 93.728522 
L 151.61717 86.243905 
L 151.126935 103.954546 
L 150.146463 92.325005 
L 149.656228 98.19523 
L 149.165992 94.040909 
L 148.185521 88.540434 
L 147.205049 105.011349 
L 146.714814 89.816435 
L 146.224578 82.38959 
L 145.734343 92.367918 
L 145.244107 88.397458 
L 144.753871 75.119459 
L 144.263636 66.863664 
L 143.7734 91.244319 
L 143.283164 81.820373 
L 142.792929 87.299723 
L 142.302693 77.881763 
L 141.812457 82.332762 
L 141.322222 99.242565 
L 140.831986 76.886867 
L 140.34175 84.320823 
L 139.851515 93.77622 
L 139.361279 99.382323 
L 138.871043 120.097519 
L 138.380808 131.281357 
L 137.890572 126.638153 
L 137.400337 127.043082 
L 136.910101 133.51664 
L 136.419865 133.044353 
L 135.92963 126.264781 
L 135.439394 132.348252 
L 134.949158 121.448931 
L 134.458923 126.259532 
L 133.968687 110.623878 
L 133.478451 115.087235 
L 132.988216 113.402127 
L 132.49798 114.944782 
L 132.007744 100.896806 
L 131.517509 92.514875 
L 131.027273 92.898978 
L 130.537037 97.844217 
L 130.046802 93.832197 
L 129.556566 116.986138 
L 129.066331 110.255558 
L 128.576095 112.066237 
L 128.085859 98.670526 
L 127.595624 119.014821 
L 127.105388 131.417818 
L 126.615152 103.588954 
L 126.124917 109.928188 
L 125.634681 120.198291 
L 125.144445 114.422586 
L 124.65421 102.766392 
L 124.163974 118.516574 
L 123.673738 123.744491 
L 123.183503 109.12948 
L 122.203031 121.428548 
L 121.712796 109.074118 
L 121.22256 117.055601 
L 120.732324 141.715743 
L 120.242089 134.153483 
L 119.751853 137.877614 
L 119.261618 142.516933 
L 118.771382 135.311572 
L 118.281146 142.41371 
L 117.300675 129.201868 
L 116.810439 135.54562 
L 116.320204 114.362803 
L 115.829968 139.489371 
L 115.339732 126.188885 
L 114.849497 121.848049 
L 114.359261 112.934004 
L 113.869025 99.193636 
L 113.37879 104.648776 
L 112.888554 101.81863 
L 112.398318 112.738407 
L 111.908083 105.085794 
L 111.417847 104.710584 
L 110.927612 122.941443 
L 110.437376 133.037399 
L 109.94714 149.875699 
L 109.456905 142.587098 
L 108.966669 140.49907 
L 108.476433 147.96365 
L 107.986198 158.358693 
L 107.495962 163.008155 
L 106.515491 141.184233 
L 106.025255 137.364481 
L 105.535019 156.143652 
L 105.044784 134.866748 
L 104.064312 139.230145 
L 103.574077 121.581008 
L 103.083841 142.066775 
L 102.593606 155.312357 
L 102.10337 145.294202 
L 101.613134 149.435453 
L 101.122899 149.45216 
L 100.142427 161.52377 
L 99.652192 163.716913 
L 99.161956 150.063543 
L 98.67172 150.6496 
L 98.181485 150.859322 
L 97.691249 141.589716 
L 97.201013 150.791522 
L 96.710778 138.567627 
L 96.220542 145.799022 
L 95.730306 150.304397 
L 95.240071 149.649882 
L 94.749835 146.695798 
L 94.2596 136.21511 
L 93.769364 131.783716 
L 93.279128 139.512385 
L 92.788893 133.245451 
L 92.298657 132.544302 
L 91.808421 126.58827 
L 90.82795 138.344967 
L 90.337714 130.825765 
L 89.847479 132.886787 
L 89.357243 139.537342 
L 88.867007 143.527304 
L 88.376772 139.50934 
L 87.886536 144.025776 
L 87.3963 142.838312 
L 86.906065 125.148198 
L 86.415829 140.018108 
L 85.925593 131.911031 
L 85.435358 130.479388 
L 84.945122 141.107135 
L 84.454887 142.633751 
L 83.964651 132.668962 
L 83.474415 145.015192 
L 82.98418 133.304675 
L 82.493944 133.820932 
L 82.003708 140.470745 
L 81.513473 134.255322 
L 81.023237 139.352979 
L 80.533001 141.298526 
L 80.042766 130.85251 
L 79.55253 132.10052 
L 79.062294 126.365459 
L 78.572059 124.513567 
L 78.081823 124.945232 
L 77.591587 142.259167 
L 77.101352 130.551853 
L 76.611116 133.520927 
L 76.120881 146.361001 
L 75.630645 154.867549 
L 75.140409 141.528583 
L 74.650174 158.295248 
L 74.159938 132.438158 
L 73.669702 156.41009 
L 72.689231 133.120845 
L 72.198995 150.914961 
L 71.70876 143.462985 
L 71.218524 150.138131 
L 70.728288 149.974895 
L 70.238053 156.047129 
L 69.747817 133.573151 
L 69.257581 160.873742 
L 68.767346 159.735699 
L 68.27711 174.86746 
L 67.786875 166.927567 
L 67.296639 145.504439 
L 66.806403 158.693601 
L 66.316168 149.068 
L 65.825932 153.393412 
L 65.335696 134.4963 
L 64.845461 133.155772 
L 64.355225 144.621117 
L 63.864989 138.289336 
L 63.374754 151.517723 
L 62.884518 120.035175 
L 62.394282 136.083888 
L 61.904047 137.039513 
L 61.413811 144.570611 
L 60.923575 146.660357 
L 60.43334 142.135413 
L 59.943104 143.185941 
L 59.452869 166.195061 
L 58.962633 151.527579 
L 58.472397 162.783831 
L 57.982162 143.401003 
L 57.00169 169.358315 
L 56.511455 155.67329 
L 56.021219 160.057818 
L 55.530983 127.083619 
L 55.040748 127.421327 
L 54.550512 142.23313 
L 54.060276 115.702905 
L 53.570041 126.846779 
L 53.079805 126.677084 
L 52.589569 112.425773 
L 52.099334 140.718616 
L 51.609098 136.111934 
L 51.118862 140.937938 
L 50.628627 153.285856 
L 50.138391 144.56349 
L 49.648156 158.42927 
L 49.15792 155.529937 
L 48.667684 142.72708 
L 48.177449 153.495422 
L 47.687213 147.844727 
L 46.706742 124.546523 
L 46.216506 135.144159 
L 45.72627 137.404291 
L 45.236035 126.460811 
L 44.745799 144.545817 
L 43.275092 139.744972 
L 42.784856 150.275094 
L 42.294621 142.405206 
L 41.804385 144.059248 
L 40.823914 125.841176 
L 40.333678 92.501261 
L 39.843443 108.977401 
L 39.353207 132.60194 
L 38.862971 140.50741 
L 38.372736 138.262195 
L 37.8825 152.860703 
L 37.8825 152.860703 
" clip-path="url(#pf64a93a8ff)" style="fill: none; stroke: #1f77b4; stroke-opacity: 0.8; stroke-width: 1.5; stroke-linecap: square"/>
   </g>
   <g id="line2d_20">
    <path d="M 325.0825 159.59491 
L 324.670354 157.977715 
L 324.180118 161.152763 
L 323.689883 163.00088 
L 322.709411 156.62845 
L 322.219176 160.740701 
L 321.238704 160.880856 
L 320.748469 166.431902 
L 320.258233 167.593026 
L 319.767998 164.381451 
L 319.277762 166.690203 
L 318.787526 173.472016 
L 317.807055 150.848331 
L 317.316819 148.98462 
L 316.826584 143.412359 
L 316.336348 145.864587 
L 315.846112 157.35336 
L 315.355877 157.571332 
L 314.865641 144.216293 
L 314.375405 145.444136 
L 313.88517 154.516817 
L 313.394934 159.466551 
L 312.904698 163.246414 
L 312.414463 150.97937 
L 311.924227 148.340427 
L 311.433992 148.614051 
L 310.45352 133.20722 
L 309.963285 131.30596 
L 309.473049 131.889086 
L 308.982813 137.46301 
L 308.492578 149.587074 
L 307.512106 147.56299 
L 307.021871 144.218745 
L 306.531635 139.187512 
L 306.041399 143.252332 
L 305.060928 158.219612 
L 304.570692 171.309609 
L 304.080457 171.318817 
L 303.590221 167.333822 
L 303.099986 170.312067 
L 302.60975 172.450958 
L 302.119514 168.065138 
L 301.629279 154.430491 
L 301.139043 144.885401 
L 300.158572 152.715841 
L 299.668336 143.049513 
L 299.1781 137.93351 
L 298.687865 144.492781 
L 298.197629 148.827159 
L 297.707393 139.888783 
L 297.217158 140.999561 
L 296.726922 139.671382 
L 296.236686 132.180686 
L 295.746451 136.140829 
L 294.76598 148.262202 
L 294.275744 160.451874 
L 293.785508 167.993514 
L 293.295273 158.65194 
L 292.805037 154.461066 
L 292.314801 155.520692 
L 291.824566 158.740868 
L 291.33433 163.382515 
L 290.844094 161.03308 
L 290.353859 152.114195 
L 289.863623 153.864558 
L 289.373387 158.205752 
L 288.883152 150.693743 
L 288.392916 151.868434 
L 287.90268 154.513356 
L 286.922209 147.895387 
L 286.431973 146.366163 
L 285.941738 150.97535 
L 284.961267 163.332916 
L 284.471031 158.842236 
L 283.980795 159.479677 
L 283.49056 162.159088 
L 283.000324 164.138912 
L 282.510088 159.455499 
L 282.019853 147.198569 
L 281.039381 163.933479 
L 280.549146 161.662518 
L 280.05891 152.70065 
L 279.568674 150.996399 
L 279.078439 157.033377 
L 278.588203 156.152021 
L 278.097967 154.737935 
L 277.607732 151.459621 
L 277.117496 149.550939 
L 276.627261 150.481371 
L 276.137025 147.519337 
L 275.646789 147.383519 
L 275.156554 144.169712 
L 274.666318 142.812682 
L 274.176082 149.534704 
L 273.685847 153.672386 
L 273.195611 148.884227 
L 272.705375 148.815726 
L 272.21514 152.665534 
L 271.724904 150.861134 
L 270.744433 159.349925 
L 270.254197 157.791984 
L 269.763961 145.073361 
L 269.273726 140.004954 
L 268.78349 152.167489 
L 268.293255 158.287984 
L 267.803019 158.917682 
L 267.312783 154.313489 
L 266.822548 153.093545 
L 266.332312 156.525473 
L 265.842076 153.343587 
L 265.351841 154.780826 
L 264.861605 156.796411 
L 264.371369 152.867348 
L 263.881134 153.719997 
L 263.390898 146.589402 
L 262.900662 134.740172 
L 262.410427 135.496217 
L 261.920191 145.466737 
L 261.429955 148.987614 
L 260.93972 147.341658 
L 260.449484 148.12486 
L 259.959249 150.675902 
L 259.469013 148.062327 
L 258.978777 143.826443 
L 258.488542 141.191316 
L 257.998306 141.260327 
L 257.017835 153.574654 
L 256.527599 161.126362 
L 256.037363 165.244906 
L 255.547128 159.26732 
L 255.056892 156.989555 
L 254.566656 157.171847 
L 254.076421 152.601212 
L 253.586185 143.463422 
L 253.095949 129.294013 
L 252.605714 125.87928 
L 252.115478 128.913516 
L 251.625242 137.705542 
L 251.135007 139.35132 
L 250.644771 131.965167 
L 250.154536 131.102683 
L 249.6643 136.59301 
L 249.174064 136.853086 
L 248.683829 134.17537 
L 248.193593 134.881372 
L 247.703357 130.013333 
L 247.213122 131.201356 
L 245.742415 144.227205 
L 245.252179 139.528127 
L 244.761943 143.240089 
L 244.271708 156.810776 
L 243.781472 160.26504 
L 243.291236 147.342619 
L 242.801001 138.78082 
L 242.310765 141.438924 
L 241.330294 131.13027 
L 240.840058 129.982394 
L 240.349823 132.880423 
L 239.859587 129.699884 
L 239.369351 125.474748 
L 238.38888 135.357986 
L 237.898644 141.432393 
L 237.408409 136.895904 
L 236.918173 134.441407 
L 236.427937 133.498202 
L 235.937702 134.27088 
L 235.447466 134.158057 
L 234.95723 121.549218 
L 234.466995 120.187929 
L 233.976759 121.891132 
L 233.486524 122.592841 
L 232.996288 130.334314 
L 232.015817 138.293385 
L 231.525581 133.787905 
L 231.035345 132.519935 
L 230.54511 147.559575 
L 230.054874 151.153878 
L 229.564638 140.316414 
L 229.074403 135.18272 
L 228.584167 138.135081 
L 228.093931 134.678367 
L 227.603696 126.161919 
L 227.11346 121.192372 
L 226.623224 122.660216 
L 226.132989 122.256003 
L 225.642753 127.032452 
L 225.152517 139.142765 
L 224.662282 134.642366 
L 224.172046 128.099328 
L 223.191575 134.896834 
L 222.701339 138.044327 
L 221.720868 140.274902 
L 220.740397 128.500332 
L 220.250161 119.891037 
L 219.759925 114.376641 
L 219.26969 119.865769 
L 218.779454 118.64913 
L 218.289218 115.767502 
L 217.798983 118.79665 
L 217.308747 123.362145 
L 216.818511 124.981024 
L 216.328276 121.269324 
L 215.83804 108.8499 
L 215.347805 113.199513 
L 214.857569 116.160982 
L 214.367333 106.330175 
L 213.386862 112.389249 
L 212.896626 111.303833 
L 212.406391 121.216181 
L 211.916155 127.047584 
L 211.425919 125.890755 
L 210.935684 121.927889 
L 210.445448 123.153108 
L 209.955212 123.43424 
L 209.464977 123.189947 
L 208.974741 132.489502 
L 208.484505 127.012306 
L 207.99427 116.336952 
L 207.013799 111.031036 
L 206.523563 104.061131 
L 206.033327 105.325462 
L 205.543092 106.034822 
L 205.052856 102.455457 
L 204.56262 105.572593 
L 204.072385 104.601631 
L 203.582149 101.102544 
L 203.091913 99.206458 
L 202.601678 95.91116 
L 202.111442 89.832243 
L 201.621206 78.354633 
L 201.130971 78.936782 
L 200.640735 88.477907 
L 200.150499 88.016611 
L 199.660264 86.820856 
L 199.170028 93.629499 
L 198.679793 90.089616 
L 198.189557 84.735763 
L 197.699321 85.896432 
L 197.209086 81.936231 
L 196.71885 76.085092 
L 196.228614 74.174536 
L 195.738379 73.888197 
L 195.248143 68.661273 
L 194.267672 48.652847 
L 193.777436 45.566851 
L 193.2872 40.039253 
L 192.796965 32.931931 
L 192.306729 38.786926 
L 191.816493 47.806658 
L 191.326258 45.118934 
L 190.836022 33.648209 
L 190.345786 25.432109 
L 189.855551 24.002848 
L 189.365315 23.980494 
L 188.87508 28.410583 
L 188.384844 34.823701 
L 187.404373 24.778775 
L 186.423901 32.913705 
L 185.933666 33.562674 
L 184.953194 24.729317 
L 183.972723 42.165092 
L 183.482487 39.349854 
L 182.992252 25.204008 
L 182.502016 17.673966 
L 182.01178 21.115062 
L 181.521545 25.589039 
L 181.031309 25.44813 
L 180.541074 14.23757 
L 180.050838 12.098697 
L 179.560602 22.778854 
L 179.070367 20.569176 
L 178.580131 11.551652 
L 178.089895 20.015168 
L 177.59966 22.666548 
L 177.109424 23.188322 
L 176.619188 18.347882 
L 176.128953 11.789304 
L 175.638717 28.786858 
L 175.148481 31.905918 
L 174.658246 28.422701 
L 174.16801 39.721382 
L 173.677774 37.854103 
L 173.187539 30.981819 
L 172.697303 30.126679 
L 172.207068 26.2867 
L 171.716832 28.914632 
L 171.226596 21.460899 
L 170.736361 11.124877 
L 169.755889 22.982891 
L 169.265654 25.913872 
L 168.775418 25.618352 
L 168.285182 27.443683 
L 167.794947 26.879547 
L 167.304711 32.026123 
L 166.814475 43.302365 
L 166.32424 43.87228 
L 165.834004 46.694496 
L 165.343768 47.384817 
L 164.853533 46.366077 
L 164.363297 47.785141 
L 163.382826 37.605392 
L 162.89259 43.827412 
L 162.402355 51.615179 
L 161.421883 40.196264 
L 160.931648 41.446071 
L 159.951176 55.607452 
L 159.460941 57.84972 
L 158.970705 73.302245 
L 158.480469 78.931424 
L 157.990234 75.60659 
L 157.499998 82.545081 
L 157.009762 82.629457 
L 156.029291 64.446938 
L 155.539055 74.210683 
L 155.04882 81.621577 
L 154.558584 81.164375 
L 154.068349 83.295269 
L 153.578113 74.629619 
L 153.087877 81.676056 
L 152.597642 94.85997 
L 152.107406 93.62838 
L 151.61717 89.986213 
L 150.636699 101.028561 
L 150.146463 95.21379 
L 149.656228 95.260117 
L 149.165992 96.118069 
L 148.185521 89.860335 
L 147.695285 93.104905 
L 147.205049 101.340363 
L 146.714814 97.413892 
L 146.224578 86.103012 
L 145.734343 87.378754 
L 145.244107 90.382688 
L 144.753871 81.758458 
L 144.263636 70.991561 
L 143.283164 86.532346 
L 142.302693 82.590743 
L 141.812457 80.107262 
L 141.322222 90.787663 
L 140.831986 88.064716 
L 140.34175 80.603845 
L 139.361279 96.579272 
L 138.380808 125.689438 
L 137.890572 128.959755 
L 137.400337 126.840618 
L 136.419865 133.280496 
L 135.92963 129.654567 
L 135.439394 129.306516 
L 134.949158 126.898591 
L 134.458923 123.854232 
L 133.478451 112.855556 
L 132.988216 114.244681 
L 132.49798 114.173455 
L 132.007744 107.920794 
L 131.517509 96.705841 
L 131.027273 92.706926 
L 130.537037 95.371597 
L 130.046802 95.838207 
L 129.066331 113.620848 
L 128.576095 111.160898 
L 128.085859 105.368382 
L 127.595624 108.842673 
L 127.105388 125.216319 
L 126.615152 117.503386 
L 126.124917 106.758571 
L 125.634681 115.06324 
L 125.144445 117.310439 
L 124.65421 108.594489 
L 124.163974 110.641483 
L 123.673738 121.130533 
L 122.693267 112.50175 
L 122.203031 118.651284 
L 121.712796 115.251333 
L 121.22256 113.06486 
L 120.732324 129.385672 
L 120.242089 137.934613 
L 119.751853 136.015548 
L 119.261618 140.197273 
L 118.771382 138.914252 
L 117.790911 138.737893 
L 117.300675 132.131972 
L 116.810439 132.373744 
L 116.320204 124.954212 
L 115.829968 126.926087 
L 115.339732 132.839128 
L 114.849497 124.018467 
L 114.359261 117.391027 
L 113.869025 106.06382 
L 113.37879 101.921206 
L 112.888554 103.233703 
L 112.398318 107.278518 
L 111.908083 108.912101 
L 111.417847 104.898189 
L 110.927612 113.826014 
L 109.94714 141.456549 
L 109.456905 146.231399 
L 108.966669 141.543084 
L 108.476433 144.23136 
L 107.495962 160.683424 
L 107.005726 157.616039 
L 106.515491 146.704078 
L 106.025255 139.274357 
L 105.535019 146.754067 
L 105.044784 145.5052 
L 104.554548 135.924314 
L 104.064312 138.106012 
L 103.574077 130.405577 
L 103.083841 131.823892 
L 102.593606 148.689566 
L 102.10337 150.303279 
L 101.613134 147.364827 
L 101.122899 149.443806 
L 100.632663 152.236536 
L 100.142427 158.272341 
L 99.652192 162.620341 
L 98.67172 150.356571 
L 98.181485 150.754461 
L 97.691249 146.224519 
L 97.201013 146.190619 
L 96.710778 144.679574 
L 96.220542 142.183324 
L 95.730306 148.051709 
L 95.240071 149.977139 
L 94.749835 148.17284 
L 93.769364 133.999413 
L 93.279128 135.648051 
L 92.788893 136.378918 
L 91.808421 129.566286 
L 91.318186 129.398062 
L 90.82795 135.27641 
L 90.337714 134.585366 
L 89.847479 131.856276 
L 88.867007 141.532323 
L 88.376772 141.518322 
L 87.886536 141.767558 
L 87.3963 143.432044 
L 86.906065 133.993255 
L 86.415829 132.583153 
L 85.925593 135.964569 
L 85.435358 131.19521 
L 84.945122 135.793262 
L 84.454887 141.870443 
L 83.964651 137.651357 
L 83.474415 138.842077 
L 82.98418 139.159933 
L 82.493944 133.562804 
L 82.003708 137.145839 
L 81.513473 137.363034 
L 81.023237 136.804151 
L 80.533001 140.325752 
L 79.55253 131.476515 
L 79.062294 129.23299 
L 78.572059 125.439513 
L 78.081823 124.7294 
L 77.591587 133.6022 
L 77.101352 136.40551 
L 76.611116 132.03639 
L 76.120881 139.940964 
L 75.630645 150.614275 
L 75.140409 148.198066 
L 74.650174 149.911916 
L 74.159938 145.366703 
L 73.669702 144.424124 
L 73.179467 150.320062 
L 72.689231 138.675439 
L 72.198995 142.017903 
L 71.70876 147.188973 
L 71.218524 146.800558 
L 70.238053 153.011012 
L 69.747817 144.81014 
L 69.257581 147.223446 
L 68.767346 160.30472 
L 68.27711 167.301579 
L 67.786875 170.897514 
L 67.296639 156.216003 
L 66.806403 152.09902 
L 66.316168 153.8808 
L 65.825932 151.230706 
L 65.335696 143.944856 
L 64.845461 133.826036 
L 64.355225 138.888444 
L 63.864989 141.455226 
L 63.374754 144.90353 
L 62.394282 128.059531 
L 61.904047 136.5617 
L 60.923575 145.615484 
L 60.43334 144.397885 
L 59.943104 142.660677 
L 59.452869 154.690501 
L 58.962633 158.86132 
L 58.472397 157.155705 
L 57.491926 149.534967 
L 57.00169 162.513623 
L 56.511455 162.515802 
L 56.021219 157.865554 
L 55.040748 127.252473 
L 54.550512 134.827228 
L 54.060276 128.968017 
L 53.570041 121.274842 
L 53.079805 126.761931 
L 52.589569 119.551428 
L 52.099334 126.572194 
L 51.609098 138.415275 
L 51.118862 138.524936 
L 50.628627 147.111897 
L 50.138391 148.924673 
L 49.648156 151.49638 
L 49.15792 156.979603 
L 48.667684 149.128508 
L 48.177449 148.111251 
L 47.687213 150.670075 
L 47.196977 141.837738 
L 46.706742 130.188637 
L 46.216506 129.845341 
L 45.72627 136.274225 
L 45.236035 131.932551 
L 44.745799 135.503314 
L 44.255563 143.768189 
L 43.275092 140.770472 
L 42.784856 145.010033 
L 42.294621 146.34015 
L 41.804385 143.232227 
L 41.31415 139.176603 
L 40.823914 130.067567 
L 40.333678 109.171219 
L 39.843443 100.739331 
L 38.862971 136.554675 
L 38.372736 139.384802 
L 37.8825 145.561449 
L 37.8825 145.561449 
" clip-path="url(#pf64a93a8ff)" style="fill: none; stroke: #1f77b4; stroke-opacity: 0.8; stroke-width: 1.5; stroke-linecap: square"/>
   </g>
   <g id="line2d_21">
    <path d="M 325.0825 139.715392 
L 324.985172 139.748224 
L 324.494937 148.641793 
L 324.004701 149.703005 
L 323.514466 141.985593 
L 323.02423 139.164795 
L 322.533994 144.297388 
L 322.043759 141.058983 
L 321.553523 136.20391 
L 320.573052 159.901321 
L 320.082816 157.977715 
L 319.59258 161.152763 
L 319.102345 163.00088 
L 318.121873 156.62845 
L 317.631638 160.740701 
L 316.651166 160.880856 
L 316.160931 166.431902 
L 315.670695 167.593026 
L 315.18046 164.381451 
L 314.690224 166.690203 
L 314.199988 173.472016 
L 313.219517 150.848331 
L 312.729281 148.98462 
L 312.239046 143.412359 
L 311.74881 145.864587 
L 311.258574 157.35336 
L 310.768339 157.571332 
L 310.278103 144.216293 
L 309.787867 145.444136 
L 309.297632 154.516817 
L 308.807396 159.466551 
L 308.31716 163.246414 
L 307.826925 150.97937 
L 307.336689 148.340427 
L 306.846454 148.614051 
L 305.865982 133.20722 
L 305.375747 131.30596 
L 304.885511 131.889086 
L 304.395275 137.46301 
L 303.90504 149.587074 
L 302.924568 147.56299 
L 302.434333 144.218745 
L 301.944097 139.187512 
L 301.453861 143.252332 
L 300.47339 158.219612 
L 299.983154 171.309609 
L 299.492919 171.318817 
L 299.002683 167.333822 
L 298.512448 170.312067 
L 298.022212 172.450958 
L 297.531976 168.065138 
L 297.041741 154.430491 
L 296.551505 144.885401 
L 295.571034 152.715841 
L 295.080798 143.049513 
L 294.590562 137.93351 
L 294.100327 144.492781 
L 293.610091 148.827159 
L 293.119855 139.888783 
L 292.62962 140.999561 
L 292.139384 139.671382 
L 291.649148 132.180686 
L 291.158913 136.140829 
L 290.178441 148.262202 
L 289.688206 160.451874 
L 289.19797 167.993514 
L 288.707735 158.65194 
L 288.217499 154.461066 
L 287.727263 155.520692 
L 287.237028 158.740868 
L 286.746792 163.382515 
L 286.256556 161.03308 
L 285.766321 152.114195 
L 285.276085 153.864558 
L 284.785849 158.205752 
L 284.295614 150.693743 
L 283.805378 151.868434 
L 283.315142 154.513356 
L 282.334671 147.895387 
L 281.844435 146.366163 
L 281.3542 150.97535 
L 280.373729 163.332916 
L 279.883493 158.842236 
L 279.393257 159.479677 
L 278.903022 162.159088 
L 278.412786 164.138912 
L 277.92255 159.455499 
L 277.432315 147.198569 
L 276.451843 163.933479 
L 275.961608 161.662518 
L 275.471372 152.70065 
L 274.981136 150.996399 
L 274.490901 157.033377 
L 274.000665 156.152021 
L 273.510429 154.737935 
L 273.020194 151.459621 
L 272.529958 149.550939 
L 272.039723 150.481371 
L 271.549487 147.519337 
L 271.059251 147.383519 
L 270.569016 144.169712 
L 270.07878 142.812682 
L 269.588544 149.534704 
L 269.098309 153.672386 
L 268.608073 148.884227 
L 268.117837 148.815726 
L 267.627602 152.665534 
L 267.137366 150.861134 
L 266.156895 159.349925 
L 265.666659 157.791984 
L 265.176423 145.073361 
L 264.686188 140.004954 
L 264.195952 152.167489 
L 263.705717 158.287984 
L 263.215481 158.917682 
L 262.725245 154.313489 
L 262.23501 153.093545 
L 261.744774 156.525473 
L 261.254538 153.343587 
L 260.764303 154.780826 
L 260.274067 156.796411 
L 259.783831 152.867348 
L 259.293596 153.719997 
L 258.80336 146.589402 
L 258.313124 134.740172 
L 257.822889 135.496217 
L 257.332653 145.466737 
L 256.842417 148.987614 
L 256.352182 147.341658 
L 255.861946 148.12486 
L 255.37171 150.675902 
L 254.881475 148.062327 
L 254.391239 143.826443 
L 253.901004 141.191316 
L 253.410768 141.260327 
L 252.430297 153.574654 
L 251.940061 161.126362 
L 251.449825 165.244906 
L 250.95959 159.26732 
L 250.469354 156.989555 
L 249.979118 157.171847 
L 249.488883 152.601212 
L 248.998647 143.463422 
L 248.508411 129.294013 
L 248.018176 125.87928 
L 247.52794 128.913516 
L 247.037704 137.705542 
L 246.547469 139.35132 
L 246.057233 131.965167 
L 245.566998 131.102683 
L 245.076762 136.59301 
L 244.586526 136.853086 
L 244.096291 134.17537 
L 243.606055 134.881372 
L 243.115819 130.013333 
L 242.625584 131.201356 
L 241.154877 144.227205 
L 240.664641 139.528127 
L 240.174405 143.240089 
L 239.68417 156.810776 
L 239.193934 160.26504 
L 238.703698 147.342619 
L 238.213463 138.78082 
L 237.723227 141.438924 
L 236.742756 131.13027 
L 236.25252 129.982394 
L 235.762285 132.880423 
L 235.272049 129.699884 
L 234.781813 125.474748 
L 233.801342 135.357986 
L 233.311106 141.432393 
L 232.820871 136.895904 
L 232.330635 134.441407 
L 231.840399 133.498202 
L 231.350164 134.27088 
L 230.859928 134.158057 
L 230.369692 121.549218 
L 229.879457 120.187929 
L 229.389221 121.891132 
L 228.898986 122.592841 
L 228.40875 130.334314 
L 227.428279 138.293385 
L 226.938043 133.787905 
L 226.447807 132.519935 
L 225.957572 147.559575 
L 225.467336 151.153878 
L 224.9771 140.316414 
L 224.486865 135.18272 
L 223.996629 138.135081 
L 223.506393 134.678367 
L 223.016158 126.161919 
L 222.525922 121.192372 
L 222.035686 122.660216 
L 221.545451 122.256003 
L 221.055215 127.032452 
L 220.564979 139.142765 
L 220.074744 134.642366 
L 219.584508 128.099328 
L 218.604037 134.896834 
L 218.113801 138.044327 
L 217.13333 140.274902 
L 216.152859 128.500332 
L 215.662623 119.891037 
L 215.172387 114.376641 
L 214.682152 119.865769 
L 214.191916 118.64913 
L 213.70168 115.767502 
L 213.211445 118.79665 
L 212.721209 123.362145 
L 212.230973 124.981024 
L 211.740738 121.269324 
L 211.250502 108.8499 
L 210.760267 113.199513 
L 210.270031 116.160982 
L 209.779795 106.330175 
L 208.799324 112.389249 
L 208.309088 111.303833 
L 207.818853 121.216181 
L 207.328617 127.047584 
L 206.838381 125.890755 
L 206.348146 121.927889 
L 205.85791 123.153108 
L 205.367674 123.43424 
L 204.877439 123.189947 
L 204.387203 132.489502 
L 203.896967 127.012306 
L 203.406732 116.336952 
L 202.426261 111.031036 
L 201.936025 104.061131 
L 201.445789 105.325462 
L 200.955554 106.034822 
L 200.465318 102.455457 
L 199.975082 105.572593 
L 199.484847 104.601631 
L 198.994611 101.102544 
L 198.504375 99.206458 
L 198.01414 95.91116 
L 197.523904 89.832243 
L 197.033668 78.354633 
L 196.543433 78.936782 
L 196.053197 88.477907 
L 195.562961 88.016611 
L 195.072726 86.820856 
L 194.58249 93.629499 
L 194.092255 90.089616 
L 193.602019 84.735763 
L 193.111783 85.896432 
L 192.621548 81.936231 
L 192.131312 76.085092 
L 191.641076 74.174536 
L 191.150841 73.888197 
L 190.660605 68.661273 
L 189.680134 48.652847 
L 189.189898 45.566851 
L 188.699662 40.039253 
L 188.209427 32.931931 
L 187.719191 38.786926 
L 187.228955 47.806658 
L 186.73872 45.118934 
L 186.248484 33.648209 
L 185.758248 25.432109 
L 185.268013 24.002848 
L 184.777777 23.980494 
L 184.287542 28.410583 
L 183.797306 34.823701 
L 182.816835 24.778775 
L 181.836363 32.913705 
L 181.346128 33.562674 
L 180.365656 24.729317 
L 179.385185 42.165092 
L 178.894949 39.349854 
L 178.404714 25.204008 
L 177.914478 17.673966 
L 177.424242 21.115062 
L 176.934007 25.589039 
L 176.443771 25.44813 
L 175.953536 14.23757 
L 175.4633 12.098697 
L 174.973064 22.778854 
L 174.482829 20.569176 
L 173.992593 11.551652 
L 173.502357 20.015168 
L 173.012122 22.666548 
L 172.521886 23.188322 
L 172.03165 18.347882 
L 171.541415 11.789304 
L 171.051179 28.786858 
L 170.560943 31.905918 
L 170.070708 28.422701 
L 169.580472 39.721382 
L 169.090236 37.854103 
L 168.600001 30.981819 
L 168.109765 30.126679 
L 167.61953 26.2867 
L 167.129294 28.914632 
L 166.639058 21.460899 
L 166.148823 11.124877 
L 165.168351 22.982891 
L 164.678116 25.913872 
L 164.18788 25.618352 
L 163.697644 27.443683 
L 163.207409 26.879547 
L 162.717173 32.026123 
L 162.226937 43.302365 
L 161.736702 43.87228 
L 161.246466 46.694496 
L 160.75623 47.384817 
L 160.265995 46.366077 
L 159.775759 47.785141 
L 158.795288 37.605392 
L 158.305052 43.827412 
L 157.814817 51.615179 
L 156.834345 40.196264 
L 156.34411 41.446071 
L 155.363638 55.607452 
L 154.873403 57.84972 
L 154.383167 73.302245 
L 153.892931 78.931424 
L 153.402696 75.60659 
L 152.91246 82.545081 
L 152.422224 82.629457 
L 151.441753 64.446938 
L 150.951517 74.210683 
L 150.461282 81.621577 
L 149.971046 81.164375 
L 149.480811 83.295269 
L 148.990575 74.629619 
L 148.500339 81.676056 
L 148.010104 94.85997 
L 147.519868 93.62838 
L 147.029632 89.986213 
L 146.049161 101.028561 
L 145.558925 95.21379 
L 145.06869 95.260117 
L 144.578454 96.118069 
L 143.597983 89.860335 
L 143.107747 93.104905 
L 142.617511 101.340363 
L 142.127276 97.413892 
L 141.63704 86.103012 
L 141.146805 87.378754 
L 140.656569 90.382688 
L 140.166333 81.758458 
L 139.676098 70.991561 
L 138.695626 86.532346 
L 137.715155 82.590743 
L 137.224919 80.107262 
L 136.734684 90.787663 
L 136.244448 88.064716 
L 135.754212 80.603845 
L 134.773741 96.579272 
L 133.79327 125.689438 
L 133.303034 128.959755 
L 132.812799 126.840618 
L 131.832327 133.280496 
L 131.342092 129.654567 
L 130.851856 129.306516 
L 130.36162 126.898591 
L 129.871385 123.854232 
L 128.890913 112.855556 
L 128.400678 114.244681 
L 127.910442 114.173455 
L 127.420206 107.920794 
L 126.929971 96.705841 
L 126.439735 92.706926 
L 125.949499 95.371597 
L 125.459264 95.838207 
L 124.478793 113.620848 
L 123.988557 111.160898 
L 123.498321 105.368382 
L 123.008086 108.842673 
L 122.51785 125.216319 
L 122.027614 117.503386 
L 121.537379 106.758571 
L 121.047143 115.06324 
L 120.556907 117.310439 
L 120.066672 108.594489 
L 119.576436 110.641483 
L 119.0862 121.130533 
L 118.105729 112.50175 
L 117.615493 118.651284 
L 117.125258 115.251333 
L 116.635022 113.06486 
L 116.144786 129.385672 
L 115.654551 137.934613 
L 115.164315 136.015548 
L 114.67408 140.197273 
L 114.183844 138.914252 
L 113.203373 138.737893 
L 112.713137 132.131972 
L 112.222901 132.373744 
L 111.732666 124.954212 
L 111.24243 126.926087 
L 110.752194 132.839128 
L 110.261959 124.018467 
L 109.771723 117.391027 
L 109.281487 106.06382 
L 108.791252 101.921206 
L 108.301016 103.233703 
L 107.81078 107.278518 
L 107.320545 108.912101 
L 106.830309 104.898189 
L 106.340074 113.826014 
L 105.359602 141.456549 
L 104.869367 146.231399 
L 104.379131 141.543084 
L 103.888895 144.23136 
L 102.908424 160.683424 
L 102.418188 157.616039 
L 101.927953 146.704078 
L 101.437717 139.274357 
L 100.947481 146.754067 
L 100.457246 145.5052 
L 99.96701 135.924314 
L 99.476774 138.106012 
L 98.986539 130.405577 
L 98.496303 131.823892 
L 98.006068 148.689566 
L 97.515832 150.303279 
L 97.025596 147.364827 
L 96.535361 149.443806 
L 96.045125 152.236536 
L 95.554889 158.272341 
L 95.064654 162.620341 
L 94.084182 150.356571 
L 93.593947 150.754461 
L 93.103711 146.224519 
L 92.613475 146.190619 
L 92.12324 144.679574 
L 91.633004 142.183324 
L 91.142768 148.051709 
L 90.652533 149.977139 
L 90.162297 148.17284 
L 89.181826 133.999413 
L 88.69159 135.648051 
L 88.201355 136.378918 
L 87.220883 129.566286 
L 86.730648 129.398062 
L 86.240412 135.27641 
L 85.750176 134.585366 
L 85.259941 131.856276 
L 84.279469 141.532323 
L 83.789234 141.518322 
L 83.298998 141.767558 
L 82.808762 143.432044 
L 82.318527 133.993255 
L 81.828291 132.583153 
L 81.338055 135.964569 
L 80.84782 131.19521 
L 80.357584 135.793262 
L 79.867349 141.870443 
L 79.377113 137.651357 
L 78.886877 138.842077 
L 78.396642 139.159933 
L 77.906406 133.562804 
L 77.41617 137.145839 
L 76.925935 137.363034 
L 76.435699 136.804151 
L 75.945463 140.325752 
L 74.964992 131.476515 
L 74.474756 129.23299 
L 73.984521 125.439513 
L 73.494285 124.7294 
L 73.004049 133.6022 
L 72.513814 136.40551 
L 72.023578 132.03639 
L 71.533343 139.940964 
L 71.043107 150.614275 
L 70.552871 148.198066 
L 70.062636 149.911916 
L 69.5724 145.366703 
L 69.082164 144.424124 
L 68.591929 150.320062 
L 68.101693 138.675439 
L 67.611457 142.017903 
L 67.121222 147.188973 
L 66.630986 146.800558 
L 65.650515 153.011012 
L 65.160279 144.81014 
L 64.670043 147.223446 
L 64.179808 160.30472 
L 63.689572 167.301579 
L 63.199337 170.897514 
L 62.709101 156.216003 
L 62.218865 152.09902 
L 61.72863 153.8808 
L 61.238394 151.230706 
L 60.748158 143.944856 
L 60.257923 133.826036 
L 59.767687 138.888444 
L 59.277451 141.455226 
L 58.787216 144.90353 
L 57.806744 128.059531 
L 57.316509 136.5617 
L 56.336037 145.615484 
L 55.845802 144.397885 
L 55.355566 142.660677 
L 54.865331 154.690501 
L 54.375095 158.86132 
L 53.884859 157.155705 
L 52.904388 149.534967 
L 52.414152 162.513623 
L 51.923917 162.515802 
L 51.433681 157.865554 
L 50.45321 127.252473 
L 49.962974 134.827228 
L 49.472738 128.968017 
L 48.982503 121.274842 
L 48.492267 126.761931 
L 48.002031 119.551428 
L 47.511796 126.572194 
L 47.02156 138.415275 
L 46.531324 138.524936 
L 46.041089 147.111897 
L 45.550853 148.924673 
L 45.060618 151.49638 
L 44.570382 156.979603 
L 44.080146 149.128508 
L 43.589911 148.111251 
L 43.099675 150.670075 
L 42.609439 141.837738 
L 42.119204 130.188637 
L 41.628968 129.845341 
L 41.138732 136.274225 
L 40.648497 131.932551 
L 40.158261 135.503314 
L 39.668025 143.768189 
L 38.687554 140.770472 
L 38.197318 145.010033 
L 37.707083 146.34015 
L 37.216847 143.232227 
L 36.726612 139.176603 
L 36.236376 130.067567 
L 35.74614 109.171219 
L 35.255905 100.739331 
L 34.275433 136.554675 
L 33.785198 139.384802 
L 33.294962 145.561449 
L 33.294962 145.561449 
" clip-path="url(#pf64a93a8ff)" style="fill: none; stroke: #1f77b4; stroke-opacity: 0.8; stroke-width: 1.5; stroke-linecap: square"/>
   </g>
   <g id="line2d_22">
    <path d="M 172.794962 173.52 
L 172.794962 7.2 
" clip-path="url(#pf64a93a8ff)" style="fill: none; stroke-dasharray: 5.55,2.4; stroke-dashoffset: 0; stroke: #000000; stroke-opacity: 0.5; stroke-width: 1.5"/>
   </g>
   <g id="legend_1">
    <g id="patch_3">
     <path d="M 208.1025 69.6675 
L 300.1425 69.6675 
Q 302.5425 69.6675 302.5425 67.2675 
L 302.5425 15.6 
Q 302.5425 13.2 300.1425 13.2 
L 208.1025 13.2 
Q 205.7025 13.2 205.7025 15.6 
L 205.7025 67.2675 
Q 205.7025 69.6675 208.1025 69.6675 
z
" style="fill: #e8e8e8; opacity: 0.8; stroke: #cccccc; stroke-linejoin: miter"/>
    </g>
    <g id="line2d_23">
     <path d="M 210.5025 22.918125 
L 222.5025 22.918125 
L 234.5025 22.918125 
" style="fill: none; stroke: #1f77b4; stroke-opacity: 0.8; stroke-width: 1.5; stroke-linecap: square"/>
    </g>
    <g id="text_12">
     <!-- $n \,(x -x_0)$ -->
     <g transform="translate(244.1025 27.118125) scale(0.12 -0.12)">
      <use xlink:href="#DejaVuSans-Oblique-6e" transform="translate(0 0.125)"/>
      <use xlink:href="#DejaVuSans-28" transform="translate(79.614583 0.125)"/>
      <use xlink:href="#DejaVuSans-Oblique-78" transform="translate(118.628254 0.125)"/>
      <use xlink:href="#DejaVuSans-2212" transform="translate(197.290364 0.125)"/>
      <use xlink:href="#DejaVuSans-Oblique-78" transform="translate(300.561848 0.125)"/>
      <use xlink:href="#DejaVuSans-30" transform="translate(359.741536 -16.28125) scale(0.7)"/>
      <use xlink:href="#DejaVuSans-29" transform="translate(407.012043 0.125)"/>
     </g>
    </g>
    <g id="line2d_24">
     <path d="M 210.5025 40.531875 
L 222.5025 40.531875 
L 234.5025 40.531875 
" style="fill: none; stroke: #1f77b4; stroke-opacity: 0.8; stroke-width: 1.5; stroke-linecap: square"/>
    </g>
    <g id="text_13">
     <!-- $n^s \,(+x)$ -->
     <g transform="translate(244.1025 44.731875) scale(0.12 -0.12)">
      <defs>
       <path id="DejaVuSans-Oblique-73" d="M 3200 3397 
L 3091 2853 
Q 2863 2978 2609 3040 
Q 2356 3103 2088 3103 
Q 1634 3103 1373 2948 
Q 1113 2794 1113 2528 
Q 1113 2219 1719 2053 
Q 1766 2041 1788 2034 
L 1972 1978 
Q 2547 1819 2739 1644 
Q 2931 1469 2931 1166 
Q 2931 609 2489 259 
Q 2047 -91 1331 -91 
Q 1053 -91 747 -37 
Q 441 16 72 128 
L 184 722 
Q 500 559 806 475 
Q 1113 391 1394 391 
Q 1816 391 2080 572 
Q 2344 753 2344 1031 
Q 2344 1331 1650 1516 
L 1591 1531 
L 1394 1581 
Q 956 1697 753 1886 
Q 550 2075 550 2369 
Q 550 2928 970 3256 
Q 1391 3584 2113 3584 
Q 2397 3584 2667 3537 
Q 2938 3491 3200 3397 
z
" transform="scale(0.015625)"/>
       <path id="DejaVuSans-2b" d="M 2944 4013 
L 2944 2272 
L 4684 2272 
L 4684 1741 
L 2944 1741 
L 2944 0 
L 2419 0 
L 2419 1741 
L 678 1741 
L 678 2272 
L 2419 2272 
L 2419 4013 
L 2944 4013 
z
" transform="scale(0.015625)"/>
      </defs>
      <use xlink:href="#DejaVuSans-Oblique-6e" transform="translate(0 0.51875)"/>
      <use xlink:href="#DejaVuSans-Oblique-73" transform="translate(68.028802 38.8) scale(0.7)"/>
      <use xlink:href="#DejaVuSans-28" transform="translate(123.46858 0.51875)"/>
      <use xlink:href="#DejaVuSans-2b" transform="translate(162.482252 0.51875)"/>
      <use xlink:href="#DejaVuSans-Oblique-78" transform="translate(246.271314 0.51875)"/>
      <use xlink:href="#DejaVuSans-29" transform="translate(305.451002 0.51875)"/>
     </g>
    </g>
    <g id="line2d_25">
     <path d="M 210.5025 58.171875 
L 222.5025 58.171875 
L 234.5025 58.171875 
" style="fill: none; stroke: #1f77b4; stroke-opacity: 0.8; stroke-width: 1.5; stroke-linecap: square"/>
    </g>
    <g id="text_14">
     <!-- $\tilde{n} \,(x)$ -->
     <g transform="translate(244.1025 62.371875) scale(0.12 -0.12)">
      <use xlink:href="#DejaVuSans-303" transform="translate(65.063477 5.3125)"/>
      <use xlink:href="#DejaVuSans-Oblique-6e" transform="translate(0 0.734375)"/>
      <use xlink:href="#DejaVuSans-28" transform="translate(79.614583 0.734375)"/>
      <use xlink:href="#DejaVuSans-Oblique-78" transform="translate(118.628254 0.734375)"/>
      <use xlink:href="#DejaVuSans-29" transform="translate(177.807942 0.734375)"/>
     </g>
    </g>
   </g>
  </g>
 </g>
 <defs>
  <clipPath id="pf64a93a8ff">
   <rect x="37.8825" y="7.2" width="279" height="166.32"/>
  </clipPath>
 </defs>
</svg>
